<svg xmlns="http://www.w3.org/2000/svg" xmlns:xlink="http://www.w3.org/1999/xlink" width="500" zoomAndPan="magnify" viewBox="0 0 375 374.999991" height="500" preserveAspectRatio="xMidYMid meet" version="1.0"><defs><clipPath id="id1"><path d="M 12.648438 12.648438 L 362.148438 12.648438 L 362.148438 362.148438 L 12.648438 362.148438 Z M 12.648438 12.648438 " clip-rule="nonzero"/></clipPath><clipPath id="id2"><path d="M 77.078125 104.777344 L 286 104.777344 L 286 278.777344 L 77.078125 278.777344 Z M 77.078125 104.777344 " clip-rule="nonzero"/></clipPath><clipPath id="id3"><path d="M 265 151 L 297.578125 151 L 297.578125 173 L 265 173 Z M 265 151 " clip-rule="nonzero"/></clipPath></defs><g clip-path="url(#id1)"><path fill="rgb(100%, 34.118652%, 34.118652%)" d="M 362.148438 187.398438 C 362.148438 190.257812 362.078125 193.117188 361.9375 195.972656 C 361.796875 198.828125 361.585938 201.679688 361.308594 204.527344 C 361.027344 207.375 360.675781 210.210938 360.257812 213.039062 C 359.835938 215.867188 359.347656 218.6875 358.789062 221.492188 C 358.234375 224.296875 357.605469 227.085938 356.910156 229.859375 C 356.214844 232.632812 355.453125 235.390625 354.625 238.125 C 353.792969 240.863281 352.898438 243.578125 351.933594 246.269531 C 350.96875 248.964844 349.941406 251.628906 348.847656 254.273438 C 347.753906 256.914062 346.59375 259.527344 345.371094 262.113281 C 344.148438 264.699219 342.863281 267.253906 341.515625 269.773438 C 340.167969 272.296875 338.757812 274.785156 337.285156 277.238281 C 335.816406 279.691406 334.285156 282.105469 332.699219 284.484375 C 331.109375 286.863281 329.460938 289.199219 327.757812 291.496094 C 326.054688 293.792969 324.296875 296.046875 322.480469 298.257812 C 320.667969 300.46875 318.800781 302.632812 316.878906 304.753906 C 314.960938 306.871094 312.988281 308.941406 310.964844 310.964844 C 308.945312 312.988281 306.871094 314.960938 304.753906 316.878906 C 302.632812 318.800781 300.46875 320.667969 298.257812 322.480469 C 296.046875 324.296875 293.792969 326.054688 291.496094 327.757812 C 289.199219 329.460938 286.863281 331.109375 284.484375 332.699219 C 282.105469 334.285156 279.691406 335.816406 277.238281 337.285156 C 274.785156 338.757812 272.296875 340.167969 269.773438 341.515625 C 267.253906 342.863281 264.699219 344.148438 262.113281 345.371094 C 259.527344 346.59375 256.914062 347.753906 254.273438 348.847656 C 251.628906 349.941406 248.964844 350.96875 246.269531 351.933594 C 243.578125 352.898438 240.863281 353.792969 238.125 354.625 C 235.390625 355.453125 232.632812 356.214844 229.859375 356.910156 C 227.085938 357.605469 224.296875 358.234375 221.492188 358.789062 C 218.6875 359.347656 215.867188 359.835938 213.039062 360.257812 C 210.210938 360.675781 207.375 361.027344 204.527344 361.308594 C 201.679688 361.585938 198.828125 361.796875 195.972656 361.9375 C 193.117188 362.078125 190.257812 362.148438 187.398438 362.148438 C 184.539062 362.148438 181.679688 362.078125 178.824219 361.9375 C 175.96875 361.796875 173.117188 361.585938 170.269531 361.308594 C 167.425781 361.027344 164.585938 360.675781 161.757812 360.257812 C 158.929688 359.835938 156.113281 359.347656 153.308594 358.789062 C 150.5 358.234375 147.710938 357.605469 144.9375 356.910156 C 142.164062 356.214844 139.410156 355.453125 136.671875 354.625 C 133.933594 353.792969 131.21875 352.898438 128.527344 351.933594 C 125.835938 350.96875 123.167969 349.941406 120.523438 348.847656 C 117.882812 347.753906 115.269531 346.59375 112.683594 345.371094 C 110.097656 344.148438 107.542969 342.863281 105.023438 341.515625 C 102.5 340.167969 100.011719 338.757812 97.558594 337.285156 C 95.105469 335.816406 92.691406 334.285156 90.3125 332.699219 C 87.933594 331.109375 85.597656 329.460938 83.300781 327.757812 C 81.003906 326.054688 78.75 324.296875 76.539062 322.480469 C 74.328125 320.667969 72.164062 318.800781 70.042969 316.878906 C 67.925781 314.960938 65.855469 312.988281 63.832031 310.964844 C 61.808594 308.941406 59.839844 306.871094 57.917969 304.753906 C 55.996094 302.632812 54.128906 300.46875 52.316406 298.257812 C 50.5 296.046875 48.742188 293.792969 47.039062 291.496094 C 45.335938 289.199219 43.6875 286.863281 42.097656 284.484375 C 40.511719 282.105469 38.980469 279.691406 37.511719 277.238281 C 36.039062 274.785156 34.632812 272.296875 33.28125 269.773438 C 31.933594 267.253906 30.648438 264.699219 29.425781 262.113281 C 28.203125 259.527344 27.046875 256.914062 25.949219 254.273438 C 24.855469 251.628906 23.828125 248.964844 22.863281 246.269531 C 21.902344 243.578125 21.003906 240.863281 20.171875 238.125 C 19.34375 235.390625 18.582031 232.632812 17.886719 229.859375 C 17.191406 227.085938 16.566406 224.296875 16.007812 221.492188 C 15.449219 218.6875 14.960938 215.867188 14.539062 213.039062 C 14.121094 210.210938 13.769531 207.375 13.492188 204.527344 C 13.210938 201.679688 13 198.828125 12.859375 195.972656 C 12.71875 193.117188 12.648438 190.257812 12.648438 187.398438 C 12.648438 184.539062 12.71875 181.679688 12.859375 178.824219 C 13 175.96875 13.210938 173.117188 13.492188 170.269531 C 13.769531 167.425781 14.121094 164.585938 14.539062 161.757812 C 14.960938 158.929688 15.449219 156.113281 16.007812 153.308594 C 16.566406 150.5 17.191406 147.710938 17.886719 144.9375 C 18.582031 142.164062 19.34375 139.410156 20.171875 136.671875 C 21.003906 133.933594 21.902344 131.21875 22.863281 128.527344 C 23.828125 125.835938 24.855469 123.167969 25.949219 120.523438 C 27.046875 117.882812 28.203125 115.269531 29.425781 112.683594 C 30.648438 110.097656 31.933594 107.542969 33.28125 105.023438 C 34.632812 102.5 36.039062 100.011719 37.511719 97.558594 C 38.980469 95.105469 40.511719 92.691406 42.097656 90.3125 C 43.6875 87.933594 45.335938 85.597656 47.039062 83.300781 C 48.742188 81.003906 50.5 78.75 52.316406 76.539062 C 54.128906 74.328125 55.996094 72.164062 57.917969 70.042969 C 59.839844 67.925781 61.808594 65.855469 63.832031 63.832031 C 65.855469 61.808594 67.925781 59.839844 70.042969 57.917969 C 72.164062 55.996094 74.328125 54.128906 76.539062 52.316406 C 78.75 50.5 81.003906 48.742188 83.300781 47.039062 C 85.597656 45.335938 87.933594 43.6875 90.3125 42.097656 C 92.691406 40.511719 95.105469 38.980469 97.558594 37.511719 C 100.011719 36.039062 102.5 34.632812 105.023438 33.28125 C 107.542969 31.933594 110.097656 30.648438 112.683594 29.425781 C 115.269531 28.203125 117.882812 27.046875 120.523438 25.949219 C 123.167969 24.855469 125.835938 23.828125 128.527344 22.863281 C 131.21875 21.902344 133.933594 21.003906 136.671875 20.171875 C 139.410156 19.34375 142.164062 18.582031 144.9375 17.886719 C 147.710938 17.191406 150.5 16.566406 153.308594 16.007812 C 156.113281 15.449219 158.929688 14.960938 161.757812 14.539062 C 164.585938 14.121094 167.425781 13.769531 170.269531 13.488281 C 173.117188 13.210938 175.96875 13 178.824219 12.859375 C 181.679688 12.71875 184.539062 12.648438 187.398438 12.648438 C 190.257812 12.648438 193.117188 12.71875 195.972656 12.859375 C 198.828125 13 201.679688 13.210938 204.527344 13.488281 C 207.375 13.769531 210.210938 14.121094 213.039062 14.539062 C 215.867188 14.960938 218.6875 15.449219 221.492188 16.007812 C 224.296875 16.566406 227.085938 17.191406 229.859375 17.886719 C 232.632812 18.582031 235.390625 19.34375 238.125 20.171875 C 240.863281 21.003906 243.578125 21.902344 246.269531 22.863281 C 248.964844 23.828125 251.628906 24.855469 254.273438 25.949219 C 256.914062 27.046875 259.527344 28.203125 262.113281 29.425781 C 264.699219 30.648438 267.253906 31.933594 269.777344 33.28125 C 272.296875 34.632812 274.785156 36.039062 277.238281 37.511719 C 279.691406 38.980469 282.105469 40.511719 284.484375 42.097656 C 286.863281 43.6875 289.199219 45.335938 291.496094 47.039062 C 293.792969 48.742188 296.046875 50.5 298.257812 52.316406 C 300.46875 54.128906 302.632812 55.996094 304.753906 57.917969 C 306.871094 59.839844 308.945312 61.808594 310.964844 63.832031 C 312.988281 65.855469 314.960938 67.925781 316.878906 70.042969 C 318.800781 72.164062 320.667969 74.328125 322.480469 76.539062 C 324.296875 78.75 326.054688 81.003906 327.757812 83.300781 C 329.464844 85.597656 331.109375 87.933594 332.699219 90.3125 C 334.285156 92.691406 335.816406 95.105469 337.285156 97.558594 C 338.757812 100.011719 340.167969 102.5 341.515625 105.023438 C 342.863281 107.542969 344.148438 110.097656 345.371094 112.683594 C 346.59375 115.269531 347.753906 117.882812 348.847656 120.523438 C 349.941406 123.167969 350.96875 125.835938 351.933594 128.527344 C 352.898438 131.21875 353.792969 133.933594 354.625 136.671875 C 355.453125 139.410156 356.21875 142.164062 356.910156 144.9375 C 357.605469 147.710938 358.234375 150.5 358.789062 153.308594 C 359.347656 156.113281 359.835938 158.929688 360.257812 161.757812 C 360.675781 164.585938 361.027344 167.425781 361.308594 170.269531 C 361.585938 173.117188 361.796875 175.96875 361.9375 178.824219 C 362.078125 181.679688 362.148438 184.539062 362.148438 187.398438 Z M 362.148438 187.398438 " fill-opacity="1" fill-rule="nonzero"/></g><g clip-path="url(#id2)"><path fill="rgb(100%, 90.19928%, 13.729858%)" d="M 271.183594 163.800781 C 270.222656 163.800781 269.3125 164.085938 268.59375 164.613281 C 269.746094 165.382812 271.132812 165.8125 272.621094 165.8125 L 284.066406 165.8125 C 283.398438 168.160156 282.582031 170.457031 281.578125 172.664062 C 277.363281 182.003906 270.222656 189.71875 261.3125 194.699219 C 253.21875 242.460938 215.421875 278.632812 170.011719 278.632812 C 118.65625 278.582031 77.078125 232.449219 77.078125 175.535156 L 195.78125 175.535156 C 193.292969 170.890625 191.519531 165.8125 190.65625 160.445312 C 190.273438 157.957031 190.035156 155.417969 190.035156 152.828125 C 190.035156 126.386719 211.496094 104.921875 237.9375 104.921875 C 263.851562 104.921875 284.980469 125.523438 285.792969 151.25 C 285.792969 151.777344 285.839844 152.300781 285.839844 152.828125 C 285.839844 156.566406 285.410156 160.253906 284.59375 163.753906 L 271.183594 163.753906 Z M 271.183594 163.800781 " fill-opacity="1" fill-rule="nonzero"/></g><g clip-path="url(#id3)"><path fill="rgb(93.728638%, 50.19989%, 19.219971%)" d="M 295.421875 165.714844 C 295.902344 166.433594 296.1875 167.296875 296.1875 168.304688 C 296.1875 169.5 295.707031 170.601562 294.894531 171.417969 C 294.128906 172.230469 293.027344 172.710938 291.78125 172.710938 L 271.183594 172.710938 C 268.691406 172.710938 266.726562 170.699219 266.726562 168.253906 C 266.726562 167.152344 267.109375 166.195312 267.734375 165.429688 C 267.828125 165.332031 267.925781 165.1875 268.019531 165.09375 C 268.164062 164.902344 268.355469 164.757812 268.546875 164.613281 C 268.546875 164.613281 268.59375 164.613281 268.59375 164.566406 C 267.253906 163.65625 266.25 162.363281 265.722656 160.78125 L 265.722656 160.734375 C 265.671875 160.636719 265.625 160.496094 265.625 160.351562 C 265.625 160.304688 265.625 160.253906 265.578125 160.207031 C 265.578125 160.109375 265.53125 160.015625 265.53125 159.917969 C 265.53125 159.824219 265.480469 159.777344 265.480469 159.679688 C 265.480469 159.585938 265.433594 159.535156 265.433594 159.441406 C 265.433594 159.34375 265.433594 159.25 265.386719 159.152344 C 265.386719 159.105469 265.386719 159.058594 265.386719 159.007812 C 265.386719 158.867188 265.386719 158.722656 265.386719 158.53125 C 265.386719 156.519531 266.199219 154.699219 267.492188 153.40625 C 268.785156 152.109375 270.609375 151.296875 272.621094 151.296875 L 290.390625 151.296875 C 291.875 151.296875 293.265625 151.726562 294.414062 152.492188 C 294.992188 152.878906 295.515625 153.355469 295.949219 153.882812 C 296.234375 154.21875 296.523438 154.648438 296.714844 155.03125 C 297.289062 156.085938 297.578125 157.238281 297.578125 158.480469 C 297.578125 160.496094 296.761719 162.316406 295.46875 163.609375 C 295.132812 163.945312 294.75 164.277344 294.367188 164.519531 L 294.320312 164.519531 C 294.796875 164.902344 295.132812 165.285156 295.421875 165.714844 Z M 295.421875 165.714844 " fill-opacity="1" fill-rule="nonzero"/></g><path fill="rgb(44.309998%, 32.548523%, 36.079407%)" d="M 255.710938 149.90625 C 255.710938 155.175781 251.398438 159.488281 246.128906 159.488281 C 240.859375 159.488281 236.546875 155.175781 236.546875 149.90625 C 236.546875 144.636719 240.859375 140.324219 246.128906 140.324219 C 251.445312 140.324219 255.710938 144.636719 255.710938 149.90625 Z M 255.710938 149.90625 " fill-opacity="1" fill-rule="nonzero"/><path fill="rgb(94.509888%, 35.289001%, 13.328552%)" d="M 294.367188 164.613281 C 293.21875 165.382812 291.828125 165.8125 290.34375 165.8125 L 272.570312 165.8125 C 271.085938 165.8125 269.699219 165.382812 268.546875 164.613281 C 269.265625 164.085938 270.175781 163.800781 271.132812 163.800781 L 291.734375 163.800781 C 292.738281 163.800781 293.648438 164.085938 294.367188 164.613281 Z M 294.367188 164.613281 " fill-opacity="1" fill-rule="nonzero"/><path fill="rgb(100%, 94.509888%, 53.329468%)" d="M 213.839844 185.167969 C 213.839844 212.761719 191.085938 235.132812 163.0625 235.132812 C 134.992188 235.132812 112.285156 212.761719 112.285156 185.167969 Z M 213.839844 185.167969 " fill-opacity="1" fill-rule="nonzero"/></svg>