<svg xmlns="http://www.w3.org/2000/svg" xmlns:xlink="http://www.w3.org/1999/xlink" width="500" zoomAndPan="magnify" viewBox="0 0 375 374.999991" height="500" preserveAspectRatio="xMidYMid meet" version="1.0"><defs><clipPath id="id1"><path d="M 12.648438 12.648438 L 362.148438 12.648438 L 362.148438 362.148438 L 12.648438 362.148438 Z M 12.648438 12.648438 " clip-rule="nonzero"/></clipPath><clipPath id="id2"><path d="M 74.484375 96.472656 L 300.234375 96.472656 L 300.234375 269 L 74.484375 269 Z M 74.484375 96.472656 " clip-rule="nonzero"/></clipPath><clipPath id="id3"><path d="M 114 96.472656 L 300.234375 96.472656 L 300.234375 278.722656 L 114 278.722656 Z M 114 96.472656 " clip-rule="nonzero"/></clipPath></defs><g clip-path="url(#id1)"><path fill="rgb(78.819275%, 88.62915%, 39.608765%)" d="M 362.148438 187.398438 C 362.148438 190.257812 362.078125 193.117188 361.9375 195.972656 C 361.796875 198.828125 361.585938 201.679688 361.308594 204.527344 C 361.027344 207.375 360.675781 210.210938 360.257812 213.039062 C 359.835938 215.867188 359.347656 218.6875 358.789062 221.492188 C 358.234375 224.296875 357.605469 227.085938 356.910156 229.859375 C 356.214844 232.632812 355.453125 235.390625 354.625 238.125 C 353.792969 240.863281 352.898438 243.578125 351.933594 246.269531 C 350.96875 248.964844 349.941406 251.628906 348.847656 254.273438 C 347.753906 256.914062 346.59375 259.527344 345.371094 262.113281 C 344.148438 264.699219 342.863281 267.253906 341.515625 269.773438 C 340.167969 272.296875 338.757812 274.785156 337.285156 277.238281 C 335.816406 279.691406 334.285156 282.105469 332.699219 284.484375 C 331.109375 286.863281 329.460938 289.199219 327.757812 291.496094 C 326.054688 293.792969 324.296875 296.046875 322.480469 298.257812 C 320.667969 300.46875 318.800781 302.632812 316.878906 304.753906 C 314.960938 306.871094 312.988281 308.945312 310.964844 310.964844 C 308.945312 312.988281 306.871094 314.960938 304.753906 316.878906 C 302.632812 318.800781 300.46875 320.667969 298.257812 322.480469 C 296.046875 324.296875 293.792969 326.054688 291.496094 327.757812 C 289.199219 329.460938 286.863281 331.109375 284.484375 332.699219 C 282.105469 334.285156 279.691406 335.816406 277.238281 337.285156 C 274.785156 338.757812 272.296875 340.167969 269.773438 341.515625 C 267.253906 342.863281 264.699219 344.148438 262.113281 345.371094 C 259.527344 346.59375 256.914062 347.753906 254.273438 348.847656 C 251.628906 349.941406 248.964844 350.96875 246.269531 351.933594 C 243.578125 352.898438 240.863281 353.792969 238.125 354.625 C 235.390625 355.453125 232.632812 356.214844 229.859375 356.910156 C 227.085938 357.605469 224.296875 358.234375 221.492188 358.789062 C 218.6875 359.347656 215.867188 359.835938 213.039062 360.257812 C 210.210938 360.675781 207.375 361.027344 204.527344 361.308594 C 201.679688 361.585938 198.828125 361.796875 195.972656 361.9375 C 193.117188 362.078125 190.257812 362.148438 187.398438 362.148438 C 184.539062 362.148438 181.679688 362.078125 178.824219 361.9375 C 175.96875 361.796875 173.117188 361.585938 170.269531 361.308594 C 167.425781 361.027344 164.585938 360.675781 161.757812 360.257812 C 158.929688 359.835938 156.113281 359.347656 153.308594 358.789062 C 150.5 358.234375 147.710938 357.605469 144.9375 356.910156 C 142.164062 356.214844 139.410156 355.453125 136.671875 354.625 C 133.933594 353.792969 131.21875 352.898438 128.527344 351.933594 C 125.835938 350.96875 123.167969 349.941406 120.523438 348.847656 C 117.882812 347.753906 115.269531 346.59375 112.683594 345.371094 C 110.097656 344.148438 107.542969 342.863281 105.023438 341.515625 C 102.5 340.167969 100.011719 338.757812 97.558594 337.285156 C 95.105469 335.816406 92.691406 334.285156 90.3125 332.699219 C 87.933594 331.109375 85.597656 329.460938 83.300781 327.757812 C 81.003906 326.054688 78.75 324.296875 76.539062 322.480469 C 74.328125 320.667969 72.164062 318.800781 70.042969 316.878906 C 67.925781 314.960938 65.855469 312.988281 63.832031 310.964844 C 61.808594 308.945312 59.839844 306.871094 57.917969 304.753906 C 55.996094 302.632812 54.128906 300.46875 52.316406 298.257812 C 50.5 296.046875 48.742188 293.792969 47.039062 291.496094 C 45.335938 289.199219 43.6875 286.863281 42.097656 284.484375 C 40.511719 282.105469 38.980469 279.691406 37.511719 277.238281 C 36.039062 274.785156 34.632812 272.296875 33.28125 269.773438 C 31.933594 267.253906 30.648438 264.699219 29.425781 262.113281 C 28.203125 259.527344 27.046875 256.914062 25.949219 254.273438 C 24.855469 251.628906 23.828125 248.964844 22.863281 246.269531 C 21.902344 243.578125 21.003906 240.863281 20.171875 238.125 C 19.34375 235.390625 18.582031 232.632812 17.886719 229.859375 C 17.191406 227.085938 16.566406 224.296875 16.007812 221.492188 C 15.449219 218.6875 14.960938 215.867188 14.539062 213.039062 C 14.121094 210.210938 13.769531 207.375 13.492188 204.527344 C 13.210938 201.679688 13 198.828125 12.859375 195.972656 C 12.71875 193.117188 12.648438 190.257812 12.648438 187.398438 C 12.648438 184.539062 12.71875 181.679688 12.859375 178.824219 C 13 175.96875 13.210938 173.117188 13.492188 170.269531 C 13.769531 167.425781 14.121094 164.585938 14.539062 161.757812 C 14.960938 158.929688 15.449219 156.113281 16.007812 153.308594 C 16.566406 150.5 17.191406 147.710938 17.886719 144.9375 C 18.582031 142.164062 19.34375 139.410156 20.171875 136.671875 C 21.003906 133.933594 21.902344 131.21875 22.863281 128.527344 C 23.828125 125.835938 24.855469 123.167969 25.949219 120.523438 C 27.046875 117.882812 28.203125 115.269531 29.425781 112.683594 C 30.648438 110.097656 31.933594 107.542969 33.28125 105.023438 C 34.632812 102.5 36.039062 100.011719 37.511719 97.558594 C 38.980469 95.105469 40.511719 92.691406 42.097656 90.3125 C 43.6875 87.933594 45.335938 85.597656 47.039062 83.300781 C 48.742188 81.003906 50.5 78.75 52.316406 76.539062 C 54.128906 74.328125 55.996094 72.164062 57.917969 70.042969 C 59.839844 67.925781 61.808594 65.855469 63.832031 63.832031 C 65.855469 61.808594 67.925781 59.839844 70.042969 57.917969 C 72.164062 55.996094 74.328125 54.128906 76.539062 52.316406 C 78.75 50.5 81.003906 48.742188 83.300781 47.039062 C 85.597656 45.335938 87.933594 43.6875 90.3125 42.097656 C 92.691406 40.511719 95.105469 38.980469 97.558594 37.511719 C 100.011719 36.039062 102.5 34.632812 105.023438 33.28125 C 107.542969 31.933594 110.097656 30.648438 112.683594 29.425781 C 115.269531 28.203125 117.882812 27.046875 120.523438 25.949219 C 123.167969 24.855469 125.835938 23.828125 128.527344 22.863281 C 131.21875 21.902344 133.933594 21.003906 136.671875 20.171875 C 139.410156 19.34375 142.164062 18.582031 144.9375 17.886719 C 147.710938 17.191406 150.5 16.566406 153.308594 16.007812 C 156.113281 15.449219 158.929688 14.960938 161.757812 14.539062 C 164.585938 14.121094 167.425781 13.769531 170.269531 13.492188 C 173.117188 13.210938 175.96875 13 178.824219 12.859375 C 181.679688 12.71875 184.539062 12.648438 187.398438 12.648438 C 190.257812 12.648438 193.117188 12.71875 195.972656 12.859375 C 198.828125 13 201.679688 13.210938 204.527344 13.492188 C 207.375 13.769531 210.210938 14.121094 213.039062 14.539062 C 215.867188 14.960938 218.6875 15.449219 221.492188 16.007812 C 224.296875 16.566406 227.085938 17.191406 229.859375 17.886719 C 232.632812 18.582031 235.390625 19.34375 238.125 20.171875 C 240.863281 21.003906 243.578125 21.902344 246.269531 22.863281 C 248.964844 23.828125 251.628906 24.855469 254.273438 25.949219 C 256.914062 27.046875 259.527344 28.203125 262.113281 29.425781 C 264.699219 30.648438 267.253906 31.933594 269.777344 33.28125 C 272.296875 34.632812 274.785156 36.039062 277.238281 37.511719 C 279.691406 38.980469 282.105469 40.511719 284.484375 42.097656 C 286.863281 43.6875 289.199219 45.335938 291.496094 47.039062 C 293.792969 48.742188 296.046875 50.5 298.257812 52.316406 C 300.46875 54.128906 302.632812 55.996094 304.753906 57.917969 C 306.871094 59.839844 308.945312 61.808594 310.964844 63.832031 C 312.988281 65.855469 314.960938 67.925781 316.878906 70.042969 C 318.800781 72.164062 320.667969 74.328125 322.480469 76.539062 C 324.296875 78.75 326.054688 81.003906 327.757812 83.300781 C 329.464844 85.597656 331.109375 87.933594 332.699219 90.3125 C 334.285156 92.691406 335.816406 95.105469 337.285156 97.558594 C 338.757812 100.011719 340.167969 102.5 341.515625 105.023438 C 342.863281 107.542969 344.148438 110.097656 345.371094 112.683594 C 346.59375 115.269531 347.753906 117.882812 348.847656 120.523438 C 349.941406 123.167969 350.96875 125.835938 351.933594 128.527344 C 352.898438 131.21875 353.792969 133.933594 354.625 136.671875 C 355.453125 139.410156 356.21875 142.164062 356.910156 144.9375 C 357.605469 147.710938 358.234375 150.5 358.789062 153.308594 C 359.347656 156.113281 359.835938 158.929688 360.257812 161.757812 C 360.675781 164.585938 361.027344 167.425781 361.308594 170.269531 C 361.585938 173.117188 361.796875 175.96875 361.9375 178.824219 C 362.078125 181.679688 362.148438 184.539062 362.148438 187.398438 Z M 362.148438 187.398438 " fill-opacity="1" fill-rule="nonzero"/></g><g clip-path="url(#id2)"><path fill="rgb(25.489807%, 66.668701%, 80.389404%)" d="M 300.234375 171.1875 L 300.234375 238.074219 L 137.34375 238.074219 L 137.34375 204.304688 C 135.707031 204.605469 134.066406 204.804688 132.425781 204.902344 C 131.183594 205.003906 129.890625 205.054688 128.597656 205.054688 C 122.6875 205.054688 116.921875 204.105469 111.605469 202.3125 C 104.996094 200.121094 98.933594 196.6875 93.714844 192.253906 L 93.714844 268.503906 C 83.429688 268.503906 75.082031 260.136719 75.082031 249.828125 L 75.082031 158.734375 C 74.683594 156.242188 74.484375 153.652344 74.484375 151.0625 L 74.484375 150.816406 C 74.484375 148.175781 74.683594 145.585938 75.03125 143.046875 C 78.808594 116.75 101.320312 96.578125 128.597656 96.578125 C 131.582031 96.578125 134.464844 96.824219 137.34375 97.324219 L 137.34375 97.222656 L 226.441406 97.222656 C 267.191406 97.222656 300.234375 130.34375 300.234375 171.1875 Z M 300.234375 171.1875 " fill-opacity="1" fill-rule="nonzero"/></g><g clip-path="url(#id3)"><path fill="rgb(25.489807%, 54.899597%, 80.389404%)" d="M 137.34375 238.125 L 168.304688 238.125 L 168.304688 264.121094 C 168.304688 272.140625 161.84375 278.617188 153.84375 278.617188 L 151.804688 278.617188 C 143.804688 278.617188 137.34375 272.140625 137.34375 264.121094 C 137.34375 264.121094 137.34375 238.125 137.34375 238.125 Z M 175.160156 264.121094 C 175.160156 272.140625 181.621094 278.617188 189.621094 278.617188 L 191.660156 278.617188 C 199.660156 278.617188 206.117188 272.140625 206.117188 264.121094 L 206.117188 238.125 L 175.160156 238.125 Z M 231.460938 264.121094 C 231.460938 272.140625 237.921875 278.617188 245.921875 278.617188 L 247.960938 278.617188 C 255.960938 278.617188 262.417969 272.140625 262.417969 264.121094 L 262.417969 238.125 L 231.460938 238.125 Z M 269.277344 264.121094 C 269.277344 272.140625 275.738281 278.617188 283.738281 278.617188 L 285.773438 278.617188 C 293.773438 278.617188 300.234375 272.140625 300.234375 264.121094 L 300.234375 238.125 L 269.277344 238.125 Z M 168.304688 96.824219 C 138.4375 96.824219 114.1875 121.082031 114.1875 151.0625 C 114.1875 181.046875 138.390625 205.300781 168.304688 205.300781 C 198.21875 205.300781 222.417969 181.046875 222.417969 151.0625 C 222.417969 121.082031 198.167969 96.824219 168.304688 96.824219 Z M 168.304688 96.824219 " fill-opacity="1" fill-rule="nonzero"/></g><path fill="rgb(33.329773%, 41.178894%, 49.01886%)" d="M 101.867188 150.816406 C 101.867188 153.054688 100.027344 154.898438 97.789062 154.898438 C 95.554688 154.898438 93.714844 153.054688 93.714844 150.816406 C 93.714844 148.574219 95.554688 146.730469 97.789062 146.730469 C 100.027344 146.730469 101.867188 148.574219 101.867188 150.816406 Z M 101.867188 150.816406 " fill-opacity="1" fill-rule="nonzero"/></svg>