<svg xmlns="http://www.w3.org/2000/svg" xmlns:xlink="http://www.w3.org/1999/xlink" width="500" zoomAndPan="magnify" viewBox="0 0 375 374.999991" height="500" preserveAspectRatio="xMidYMid meet" version="1.0"><defs><clipPath id="id1"><path d="M 225 226 L 356 226 L 356 357.332031 L 225 357.332031 Z M 225 226 " clip-rule="nonzero"/></clipPath></defs><path fill="rgb(0%, 0%, 0%)" d="M 157.894531 288.882812 C 155.242188 288.882812 152.59375 288.804688 149.945312 288.640625 C 147.296875 288.480469 144.65625 288.238281 142.023438 287.914062 C 139.390625 287.589844 136.769531 287.1875 134.160156 286.703125 C 131.550781 286.21875 128.960938 285.652344 126.386719 285.007812 C 123.8125 284.367188 121.261719 283.644531 118.730469 282.84375 C 116.203125 282.042969 113.699219 281.167969 111.222656 280.210938 C 108.75 279.257812 106.304688 278.230469 103.890625 277.125 C 101.480469 276.023438 99.105469 274.84375 96.761719 273.59375 C 94.421875 272.34375 92.125 271.023438 89.863281 269.632812 C 87.605469 268.242188 85.390625 266.785156 83.222656 265.257812 C 81.050781 263.730469 78.933594 262.136719 76.859375 260.480469 C 74.789062 258.824219 72.769531 257.105469 70.804688 255.324219 C 68.835938 253.542969 66.925781 251.703125 65.074219 249.804688 C 63.21875 247.90625 61.425781 245.953125 59.695312 243.941406 C 57.960938 241.933594 56.289062 239.875 54.683594 237.761719 C 53.078125 235.652344 51.535156 233.492188 50.0625 231.289062 C 48.585938 229.082031 47.183594 226.832031 45.847656 224.542969 C 44.511719 222.25 43.246094 219.917969 42.050781 217.550781 C 40.859375 215.179688 39.738281 212.777344 38.695312 210.335938 C 37.648438 207.898438 36.679688 205.429688 35.785156 202.933594 C 34.890625 200.4375 34.074219 197.914062 33.335938 195.363281 C 32.59375 192.816406 31.933594 190.25 31.355469 187.660156 C 30.773438 185.070312 30.269531 182.46875 29.847656 179.847656 C 29.429688 177.230469 29.085938 174.597656 28.828125 171.960938 C 28.566406 169.320312 28.386719 166.671875 28.289062 164.023438 C 28.191406 161.371094 28.175781 158.71875 28.242188 156.066406 C 28.304688 153.414062 28.453125 150.765625 28.679688 148.125 C 28.910156 145.480469 29.21875 142.847656 29.605469 140.222656 C 29.996094 137.597656 30.464844 134.988281 31.015625 132.394531 C 31.566406 129.796875 32.191406 127.222656 32.902344 124.664062 C 33.609375 122.105469 34.394531 119.574219 35.257812 117.066406 C 36.121094 114.558594 37.0625 112.078125 38.074219 109.625 C 39.089844 107.175781 40.179688 104.757812 41.34375 102.375 C 42.507812 99.988281 43.746094 97.644531 45.054688 95.335938 C 46.363281 93.027344 47.738281 90.761719 49.1875 88.539062 C 50.632812 86.316406 52.148438 84.136719 53.726562 82.007812 C 55.308594 79.875 56.953125 77.796875 58.664062 75.765625 C 60.371094 73.738281 62.140625 71.761719 63.96875 69.839844 C 65.800781 67.917969 67.6875 66.054688 69.632812 64.25 C 71.574219 62.445312 73.574219 60.703125 75.625 59.019531 C 77.675781 57.335938 79.777344 55.71875 81.925781 54.164062 C 84.078125 52.613281 86.273438 51.125 88.515625 49.707031 C 90.757812 48.289062 93.039062 46.941406 95.367188 45.660156 C 97.691406 44.382812 100.050781 43.175781 102.449219 42.042969 C 104.847656 40.910156 107.28125 39.851562 109.746094 38.867188 C 112.207031 37.882812 114.699219 36.976562 117.21875 36.144531 C 119.738281 35.3125 122.28125 34.558594 124.847656 33.886719 C 127.414062 33.210938 129.996094 32.613281 132.597656 32.097656 C 135.199219 31.582031 137.816406 31.144531 140.445312 30.789062 C 143.074219 30.433594 145.710938 30.160156 148.359375 29.964844 C 151.003906 29.769531 153.652344 29.65625 156.304688 29.625 C 158.957031 29.59375 161.609375 29.644531 164.261719 29.777344 C 166.910156 29.910156 169.554688 30.121094 172.191406 30.414062 C 174.828125 30.707031 177.453125 31.082031 180.066406 31.539062 C 182.679688 31.992188 185.277344 32.527344 187.855469 33.140625 C 190.4375 33.757812 192.996094 34.449219 195.535156 35.222656 C 198.074219 35.992188 200.585938 36.839844 203.074219 37.765625 C 205.558594 38.691406 208.015625 39.695312 210.4375 40.769531 C 212.863281 41.847656 215.253906 42.996094 217.609375 44.222656 C 219.960938 45.445312 222.277344 46.738281 224.550781 48.105469 C 226.824219 49.46875 229.054688 50.902344 231.242188 52.40625 C 233.429688 53.90625 235.566406 55.476562 237.660156 57.109375 C 239.75 58.742188 241.789062 60.4375 243.773438 62.199219 C 245.757812 63.957031 247.691406 65.773438 249.566406 67.652344 C 251.816406 69.902344 253.984375 72.230469 256.0625 74.640625 C 258.144531 77.050781 260.132812 79.53125 262.03125 82.089844 C 263.929688 84.644531 265.730469 87.265625 267.433594 89.957031 C 269.136719 92.644531 270.742188 95.390625 272.242188 98.199219 C 273.746094 101.003906 275.140625 103.863281 276.433594 106.773438 C 277.722656 109.683594 278.90625 112.636719 279.980469 115.632812 C 281.050781 118.628906 282.015625 121.660156 282.863281 124.730469 C 283.714844 127.796875 284.449219 130.890625 285.070312 134.015625 C 285.695312 137.136719 286.199219 140.277344 286.589844 143.4375 C 286.980469 146.59375 287.253906 149.765625 287.410156 152.945312 C 287.566406 156.125 287.605469 159.304688 287.527344 162.488281 C 287.449219 165.667969 287.257812 168.84375 286.945312 172.011719 C 286.632812 175.179688 286.203125 178.332031 285.660156 181.46875 C 285.117188 184.605469 284.457031 187.71875 283.683594 190.804688 C 282.910156 193.894531 282.023438 196.949219 281.023438 199.972656 C 280.027344 202.992188 278.917969 205.976562 277.699219 208.917969 C 276.480469 211.855469 275.15625 214.75 273.722656 217.59375 C 272.292969 220.4375 270.757812 223.222656 269.121094 225.953125 C 267.484375 228.683594 265.746094 231.347656 263.914062 233.949219 C 262.082031 236.550781 260.152344 239.082031 258.132812 241.542969 C 256.113281 244.003906 254.003906 246.386719 251.808594 248.691406 C 249.613281 250.996094 247.335938 253.214844 244.976562 255.355469 C 242.617188 257.492188 240.179688 259.539062 237.671875 261.496094 C 235.160156 263.453125 232.582031 265.316406 229.933594 267.082031 C 227.285156 268.847656 224.578125 270.515625 221.808594 272.085938 C 219.035156 273.652344 216.210938 275.113281 213.332031 276.472656 C 210.453125 277.832031 207.53125 279.085938 204.558594 280.230469 C 201.589844 281.371094 198.578125 282.40625 195.53125 283.328125 C 192.484375 284.25 189.410156 285.058594 186.304688 285.753906 C 183.195312 286.449219 180.070312 287.027344 176.917969 287.492188 C 173.769531 287.957031 170.609375 288.304688 167.433594 288.539062 C 164.257812 288.769531 161.078125 288.882812 157.894531 288.882812 Z M 157.894531 58.179688 C 155.964844 58.175781 154.03125 58.226562 152.105469 58.332031 C 150.175781 58.4375 148.25 58.601562 146.328125 58.816406 C 144.410156 59.035156 142.496094 59.304688 140.59375 59.632812 C 138.6875 59.957031 136.792969 60.339844 134.910156 60.773438 C 133.027344 61.207031 131.160156 61.695312 129.304688 62.238281 C 127.449219 62.78125 125.613281 63.375 123.789062 64.023438 C 121.96875 64.667969 120.167969 65.367188 118.386719 66.117188 C 116.609375 66.867188 114.851562 67.667969 113.117188 68.519531 C 111.378906 69.371094 109.671875 70.273438 107.988281 71.222656 C 106.304688 72.171875 104.652344 73.167969 103.023438 74.210938 C 101.398438 75.253906 99.804688 76.34375 98.238281 77.480469 C 96.675781 78.617188 95.148438 79.796875 93.652344 81.019531 C 92.15625 82.242188 90.695312 83.507812 89.269531 84.8125 C 87.847656 86.121094 86.464844 87.464844 85.117188 88.851562 C 83.769531 90.238281 82.464844 91.664062 81.199219 93.125 C 79.933594 94.585938 78.714844 96.082031 77.535156 97.613281 C 76.355469 99.144531 75.222656 100.707031 74.132812 102.300781 C 73.042969 103.898438 72 105.523438 71.003906 107.179688 C 70.007812 108.835938 69.058594 110.519531 68.160156 112.230469 C 67.261719 113.9375 66.410156 115.671875 65.609375 117.433594 C 64.808594 119.191406 64.058594 120.972656 63.363281 122.773438 C 62.664062 124.574219 62.015625 126.394531 61.421875 128.234375 C 60.828125 130.074219 60.289062 131.925781 59.800781 133.796875 C 59.3125 135.667969 58.878906 137.550781 58.5 139.445312 C 58.121094 141.339844 57.796875 143.242188 57.523438 145.15625 C 57.253906 147.070312 57.039062 148.988281 56.878906 150.914062 C 56.71875 152.839844 56.613281 154.769531 56.5625 156.699219 C 56.511719 158.632812 56.515625 160.5625 56.578125 162.496094 C 56.636719 164.425781 56.753906 166.355469 56.925781 168.28125 C 57.097656 170.203125 57.324219 172.125 57.605469 174.035156 C 57.886719 175.945312 58.21875 177.847656 58.609375 179.742188 C 59 181.632812 59.445312 183.515625 59.941406 185.382812 C 60.441406 187.25 60.992188 189.097656 61.597656 190.933594 C 62.199219 192.769531 62.855469 194.585938 63.5625 196.386719 C 64.273438 198.183594 65.03125 199.960938 65.839844 201.714844 C 66.652344 203.46875 67.511719 205.199219 68.417969 206.902344 C 69.328125 208.609375 70.285156 210.285156 71.292969 211.9375 C 72.296875 213.585938 73.347656 215.207031 74.445312 216.796875 C 75.542969 218.386719 76.6875 219.945312 77.875 221.46875 C 79.0625 222.992188 80.292969 224.484375 81.566406 225.9375 C 82.835938 227.390625 84.152344 228.808594 85.503906 230.1875 C 86.859375 231.566406 88.25 232.902344 89.683594 234.203125 C 91.113281 235.5 92.578125 236.757812 94.082031 237.972656 C 95.585938 239.1875 97.121094 240.359375 98.691406 241.484375 C 100.261719 242.613281 101.863281 243.695312 103.492188 244.730469 C 105.125 245.761719 106.785156 246.75 108.472656 247.691406 C 110.160156 248.632812 111.875 249.523438 113.613281 250.363281 C 115.355469 251.207031 117.117188 251.996094 118.902344 252.738281 C 120.6875 253.476562 122.492188 254.167969 124.316406 254.804688 C 126.140625 255.441406 127.980469 256.027344 129.839844 256.558594 C 131.695312 257.089844 133.566406 257.566406 135.453125 257.992188 C 137.335938 258.417969 139.234375 258.785156 141.140625 259.101562 C 143.046875 259.417969 144.960938 259.679688 146.882812 259.886719 C 148.804688 260.089844 150.730469 260.242188 152.660156 260.335938 C 154.589844 260.433594 156.519531 260.472656 158.453125 260.460938 C 160.382812 260.445312 162.316406 260.375 164.242188 260.25 C 166.171875 260.121094 168.09375 259.941406 170.011719 259.707031 C 171.929688 259.46875 173.839844 259.179688 175.742188 258.835938 C 177.640625 258.488281 179.53125 258.089844 181.410156 257.636719 C 183.289062 257.183594 185.152344 256.675781 187.003906 256.113281 C 188.851562 255.554688 190.683594 254.941406 192.496094 254.277344 C 194.3125 253.609375 196.105469 252.894531 197.878906 252.125 C 199.652344 251.359375 201.402344 250.539062 203.128906 249.671875 C 204.855469 248.800781 206.554688 247.886719 208.226562 246.917969 C 209.902344 245.953125 211.546875 244.941406 213.160156 243.878906 C 214.777344 242.820312 216.359375 241.714844 217.914062 240.5625 C 219.464844 239.410156 220.984375 238.21875 222.464844 236.980469 C 223.949219 235.742188 225.398438 234.460938 226.808594 233.140625 C 228.21875 231.820312 229.589844 230.460938 230.921875 229.058594 C 232.253906 227.660156 233.546875 226.222656 234.796875 224.75 C 236.046875 223.277344 237.253906 221.769531 238.417969 220.226562 C 239.578125 218.683594 240.699219 217.109375 241.773438 215.503906 C 242.84375 213.894531 243.871094 212.257812 244.851562 210.59375 C 245.832031 208.925781 246.761719 207.234375 247.644531 205.515625 C 248.527344 203.796875 249.359375 202.054688 250.144531 200.289062 C 250.925781 198.519531 251.65625 196.734375 252.335938 194.925781 C 253.015625 193.117188 253.644531 191.289062 254.21875 189.445312 C 254.796875 187.597656 255.320312 185.738281 255.789062 183.867188 C 256.257812 181.992188 256.671875 180.105469 257.03125 178.207031 C 257.394531 176.308594 257.699219 174.398438 257.949219 172.484375 C 258.203125 170.570312 258.398438 168.648438 258.539062 166.71875 C 258.679688 164.792969 258.765625 162.863281 258.796875 160.929688 C 258.828125 159 258.804688 157.066406 258.722656 155.136719 C 258.644531 153.207031 258.507812 151.277344 258.320312 149.355469 C 258.128906 147.433594 257.882812 145.515625 257.582031 143.609375 C 257.28125 141.699219 256.929688 139.800781 256.519531 137.910156 C 256.109375 136.023438 255.648438 134.148438 255.128906 132.285156 C 254.613281 130.421875 254.042969 128.578125 253.421875 126.75 C 252.800781 124.917969 252.125 123.109375 251.398438 121.316406 C 250.675781 119.527344 249.898438 117.757812 249.070312 116.011719 C 248.242188 114.265625 247.367188 112.546875 246.4375 110.847656 C 245.511719 109.152344 244.539062 107.484375 243.519531 105.84375 C 242.496094 104.203125 241.429688 102.59375 240.3125 101.015625 C 239.199219 99.4375 238.042969 97.890625 236.839844 96.378906 C 235.636719 94.867188 234.390625 93.390625 233.105469 91.949219 C 231.816406 90.507812 230.492188 89.101562 229.121094 87.738281 C 226.789062 85.40625 224.347656 83.191406 221.796875 81.097656 C 219.25 79 216.601562 77.039062 213.859375 75.203125 C 211.117188 73.367188 208.289062 71.671875 205.382812 70.117188 C 202.472656 68.558594 199.492188 67.148438 196.445312 65.882812 C 193.398438 64.617188 190.296875 63.503906 187.140625 62.542969 C 183.980469 61.585938 180.785156 60.78125 177.550781 60.132812 C 174.3125 59.488281 171.054688 59 167.769531 58.675781 C 164.488281 58.347656 161.195312 58.183594 157.894531 58.179688 Z M 157.894531 58.179688 " fill-opacity="1" fill-rule="nonzero"/><g clip-path="url(#id1)"><path fill="rgb(0%, 0%, 0%)" d="M 341.660156 357.332031 C 339.773438 357.320312 337.960938 356.953125 336.222656 356.226562 C 334.480469 355.5 332.945312 354.464844 331.617188 353.128906 L 229.40625 250.988281 C 228.746094 250.328125 228.15625 249.605469 227.636719 248.828125 C 227.113281 248.050781 226.675781 247.230469 226.316406 246.363281 C 225.960938 245.5 225.6875 244.609375 225.507812 243.691406 C 225.324219 242.773438 225.234375 241.847656 225.234375 240.910156 C 225.234375 239.976562 225.324219 239.046875 225.507812 238.128906 C 225.6875 237.210938 225.960938 236.320312 226.316406 235.457031 C 226.675781 234.589844 227.113281 233.769531 227.636719 232.992188 C 228.15625 232.214844 228.746094 231.492188 229.40625 230.832031 C 230.070312 230.171875 230.789062 229.578125 231.566406 229.058594 C 232.34375 228.539062 233.167969 228.101562 234.03125 227.742188 C 234.894531 227.382812 235.789062 227.113281 236.707031 226.929688 C 237.625 226.75 238.550781 226.65625 239.484375 226.65625 C 240.421875 226.65625 241.347656 226.75 242.265625 226.929688 C 243.183594 227.113281 244.074219 227.382812 244.941406 227.742188 C 245.804688 228.101562 246.625 228.539062 247.40625 229.058594 C 248.183594 229.578125 248.902344 230.171875 249.566406 230.832031 L 351.703125 333.042969 C 352.195312 333.539062 352.648438 334.066406 353.0625 334.628906 C 353.476562 335.191406 353.851562 335.777344 354.175781 336.394531 C 354.503906 337.011719 354.785156 337.648438 355.019531 338.308594 C 355.253906 338.964844 355.441406 339.636719 355.574219 340.324219 C 355.710938 341.007812 355.796875 341.699219 355.828125 342.394531 C 355.863281 343.09375 355.84375 343.789062 355.777344 344.484375 C 355.707031 345.179688 355.589844 345.867188 355.417969 346.542969 C 355.25 347.222656 355.03125 347.882812 354.765625 348.527344 C 354.496094 349.171875 354.183594 349.796875 353.828125 350.394531 C 353.46875 350.996094 353.066406 351.566406 352.625 352.105469 C 352.183594 352.644531 351.703125 353.152344 351.1875 353.621094 C 350.671875 354.089844 350.125 354.519531 349.542969 354.910156 C 348.964844 355.300781 348.359375 355.644531 347.726562 355.945312 C 347.097656 356.246094 346.449219 356.5 345.78125 356.703125 C 345.113281 356.90625 344.433594 357.0625 343.742188 357.167969 C 343.054688 357.273438 342.359375 357.328125 341.660156 357.332031 Z M 341.660156 357.332031 " fill-opacity="1" fill-rule="nonzero"/></g></svg>