<svg xmlns="http://www.w3.org/2000/svg" viewBox="0 0 165.53 78.78"><defs><style>.cls-1{fill:#a5a0ce;}.cls-2{fill:#231f20;}.cls-3{fill:#4e57a6;}</style></defs><g id="Layer_9" data-name="Layer 9"><path class="cls-1" d="M91.27,45a11,11,0,0,1-4.3-.81,9.08,9.08,0,0,1-3.33-2.34,10.74,10.74,0,0,1-2.15-3.76A15.61,15.61,0,0,1,80.73,33a15.73,15.73,0,0,1,.73-5,10.81,10.81,0,0,1,2.08-3.75A9.25,9.25,0,0,1,86.73,22a10.12,10.12,0,0,1,4.11-.82A10.43,10.43,0,0,1,95,22a8.93,8.93,0,0,1,3.2,2.36,10.71,10.71,0,0,1,2,3.75,16.46,16.46,0,0,1,.7,5v.52H83.07a13.76,13.76,0,0,0,.85,4,8.63,8.63,0,0,0,1.76,2.82,6.88,6.88,0,0,0,2.5,1.69,8.44,8.44,0,0,0,3.09.56,10.41,10.41,0,0,0,2.35-.28,7.82,7.82,0,0,0,2.12-.84,5.61,5.61,0,0,0,1.6-1.37,3.67,3.67,0,0,0,.76-1.88h2.32a8.07,8.07,0,0,1-1.15,2.86,8,8,0,0,1-2,2.11,8.89,8.89,0,0,1-2.72,1.3A11.83,11.83,0,0,1,91.27,45Zm7.3-13.77a9.67,9.67,0,0,0-2.65-5.83,7.15,7.15,0,0,0-5.08-1.93,7.94,7.94,0,0,0-2.79.47,6.59,6.59,0,0,0-2.3,1.43,8.3,8.3,0,0,0-1.7,2.43,12.48,12.48,0,0,0-1,3.43Z"/><path class="cls-1" d="M124.15,21.73l-8.62,22.7h-2.11l-8.61-22.7h2.37l7.3,19.48,7.32-19.48Z"/><path class="cls-1" d="M121.18,66l-6.6-9.32L108,66h-2.84l8-11.37-8-11.34H108l6.56,9.32,6.57-9.32H124L116,54.6,124,66Z"/><polygon class="cls-1" points="66.49 31.25 70.87 36.49 70.87 36.49 66.49 31.25"/><path class="cls-1" d="M69.53,30h0A10.69,10.69,0,0,0,73,28.59a8.77,8.77,0,0,0,2.47-2.25,9.48,9.48,0,0,0,1.44-3,13.47,13.47,0,0,0,.47-3.61,10.85,10.85,0,0,0-1.05-5.08,8.19,8.19,0,0,0-2.83-3.11,11.56,11.56,0,0,0-4-1.56,24,24,0,0,0-4.69-.44H47.45V48.05h2.81V30.69H63.73a6.3,6.3,0,0,1,2.76.56l3-1.3Zm-5.91-2.08H50.26V12.37H64.43q5,0,7.5,1.7t2.52,5.68a10.1,10.1,0,0,1-.63,3.8,5.8,5.8,0,0,1-2,2.51,8.35,8.35,0,0,1-3.35,1.39A24.6,24.6,0,0,1,63.62,27.87Z"/><polygon class="cls-1" points="75.19 36.83 73.06 34.24 73.06 34.24 75.19 36.83"/><path class="cls-1" d="M108.28,77,73.06,34.24h0l2.13,2.59,1,1.22-1-1.22,1,1.22-1-1.22-2.13-2.59c.13.29.27.59.39.91l.93,2.43,2.15,5.67L104.81,77Z"/><path class="cls-1" d="M70.18,35a10.28,10.28,0,0,0-1.6-2.26,6.91,6.91,0,0,0-2.09-1.53l4.38,5.24C70.65,36,70.42,35.51,70.18,35Z"/><polygon class="cls-1" points="73.06 34.24 69.53 29.95 73.06 34.24 73.06 34.24"/><path class="cls-1" d="M73.45,35.15c-.12-.32-.26-.62-.39-.91L69.53,30l-3,1.3a6.91,6.91,0,0,1,2.09,1.53A10.28,10.28,0,0,1,70.18,35c.24.47.47,1,.69,1.45l5.66,6.76-2.15-5.67Z"/><polygon class="cls-1" points="73.06 34.24 73.06 34.24 69.53 29.95 69.53 29.95 73.06 34.24"/><polyline class="cls-1" points="105.15 65.97 97.02 77.04 99.63 77.04 107.99 65.97"/><polyline class="cls-1" points="121.18 65.97 129.19 77.04 131.97 77.04 124.02 65.97"/><path class="cls-1" d="M136.57,21.36l28.94,11.53,0,2.88L136.76,47.71l0-3.24,24.68-10.11-24.83-9.81Z"/><path class="cls-1" d="M34.29,48.71l-29-11.42,0-2.87L34,22.36l0,3.23L9.39,35.81l24.87,9.7Z"/></g><g id="Layer_8" data-name="Layer 8"><path class="cls-2" d="M89.76,44.4a11,11,0,0,1-4.31-.81,9.2,9.2,0,0,1-3.33-2.34A10.85,10.85,0,0,1,80,37.48a15.51,15.51,0,0,1-.76-5.06,15.73,15.73,0,0,1,.73-5A10.81,10.81,0,0,1,82,23.7a9.25,9.25,0,0,1,3.19-2.36,10.12,10.12,0,0,1,4.11-.82,10.47,10.47,0,0,1,4.19.82A8.89,8.89,0,0,1,96.7,23.7a10.71,10.71,0,0,1,2,3.75,16.46,16.46,0,0,1,.7,5V33H81.55a13.83,13.83,0,0,0,.85,4,8.63,8.63,0,0,0,1.76,2.82,6.88,6.88,0,0,0,2.5,1.69,8.46,8.46,0,0,0,3.1.56,10.39,10.39,0,0,0,2.34-.28,7.82,7.82,0,0,0,2.12-.84,5.49,5.49,0,0,0,1.6-1.38,3.6,3.6,0,0,0,.76-1.87H98.9a8.07,8.07,0,0,1-1.15,2.86,8,8,0,0,1-2,2.11A8.89,8.89,0,0,1,93,44,11.81,11.81,0,0,1,89.76,44.4Zm7.29-13.77A9.67,9.67,0,0,0,94.4,24.8a7.15,7.15,0,0,0-5.08-1.93,8.17,8.17,0,0,0-2.79.46,6.76,6.76,0,0,0-2.3,1.44,8.17,8.17,0,0,0-1.7,2.43,12.48,12.48,0,0,0-1,3.43Z"/><path class="cls-2" d="M122.63,21.11,114,43.81H111.9l-8.61-22.7h2.37L113,40.59l7.32-19.48Z"/><path class="cls-2" d="M119.66,65.35,113.07,56l-6.6,9.32h-2.84l8-11.37-8-11.34h2.87L113.07,52l6.56-9.32h2.87L114.5,54l8,11.37Z"/><polygon class="cls-2" points="64.97 30.63 69.36 35.87 69.36 35.87 64.97 30.63"/><path class="cls-2" d="M68,29.33h0A10.84,10.84,0,0,0,71.51,28,8.87,8.87,0,0,0,74,25.72a9.43,9.43,0,0,0,1.44-3,13.34,13.34,0,0,0,.47-3.6,10.85,10.85,0,0,0-1-5.08A8.19,8.19,0,0,0,72,10.94a11.56,11.56,0,0,0-4-1.56,24,24,0,0,0-4.69-.44H45.93V47.43h2.81V30.06H62.21a6.3,6.3,0,0,1,2.76.57l3-1.3ZM62.1,27.25H48.74V11.75H62.91q5,0,7.51,1.7t2.51,5.68a10.1,10.1,0,0,1-.63,3.8,5.85,5.85,0,0,1-2,2.51A8.46,8.46,0,0,1,67,26.83,24.6,24.6,0,0,1,62.1,27.25Z"/><polygon class="cls-2" points="73.67 36.21 71.54 33.62 71.54 33.62 73.67 36.21"/><path class="cls-2" d="M106.76,76.42,71.54,33.62h0l2.13,2.59,1,1.22-1-1.22,1,1.22-1-1.22-2.13-2.59c.13.29.27.59.39.91L72.86,37,75,42.63,103.3,76.42Z"/><path class="cls-2" d="M68.66,34.42a10.28,10.28,0,0,0-1.6-2.26A6.91,6.91,0,0,0,65,30.63l4.38,5.24C69.13,35.37,68.9,34.89,68.66,34.42Z"/><polygon class="cls-2" points="71.54 33.62 68.01 29.33 71.54 33.62 71.54 33.62"/><path class="cls-2" d="M71.93,34.53c-.12-.32-.26-.62-.39-.91L68,29.33l-3,1.3a6.91,6.91,0,0,1,2.09,1.53,10.28,10.28,0,0,1,1.6,2.26c.24.47.47.95.69,1.45L75,42.63,72.86,37Z"/><polygon class="cls-2" points="71.54 33.62 71.54 33.62 68.01 29.33 68.01 29.33 71.54 33.62"/><polyline class="cls-2" points="103.63 65.35 95.5 76.42 98.11 76.42 106.47 65.35"/><polyline class="cls-2" points="119.66 65.35 127.67 76.42 130.46 76.42 122.5 65.35"/><path class="cls-2" d="M135.05,20.74,164,32.27l0,2.88L135.24,47.09l0-3.24L159.9,33.74l-24.82-9.81Z"/><path class="cls-2" d="M32.77,48.09l-29-11.42,0-2.87L32.48,21.74l0,3.23L7.87,35.19l24.87,9.7Z"/></g><g id="Layer_7" data-name="Layer 7"><path class="cls-3" d="M86,43a11,11,0,0,1-4.3-.81,9.08,9.08,0,0,1-3.33-2.34,10.74,10.74,0,0,1-2.15-3.76A15.61,15.61,0,0,1,75.45,31a15.73,15.73,0,0,1,.73-5,10.81,10.81,0,0,1,2.08-3.75A9.25,9.25,0,0,1,81.45,20a10.11,10.11,0,0,1,4.1-.82,10.44,10.44,0,0,1,4.19.82,8.93,8.93,0,0,1,3.2,2.36,10.71,10.71,0,0,1,2,3.75,16.46,16.46,0,0,1,.7,5v.52H77.79a13.76,13.76,0,0,0,.85,4,8.47,8.47,0,0,0,1.76,2.82,6.88,6.88,0,0,0,2.5,1.69,8.44,8.44,0,0,0,3.09.56,10.48,10.48,0,0,0,2.35-.28,7.82,7.82,0,0,0,2.12-.84,5.61,5.61,0,0,0,1.6-1.37,3.67,3.67,0,0,0,.76-1.88h2.31A7.88,7.88,0,0,1,94,39.17a8.11,8.11,0,0,1-2,2.11,8.83,8.83,0,0,1-2.73,1.3A11.71,11.71,0,0,1,86,43Zm7.3-13.77a9.72,9.72,0,0,0-2.65-5.83,7.16,7.16,0,0,0-5.09-1.93,7.92,7.92,0,0,0-2.78.47,6.5,6.5,0,0,0-2.3,1.43,8.3,8.3,0,0,0-1.7,2.43,12.48,12.48,0,0,0-1,3.43Z"/><path class="cls-3" d="M118.86,19.73l-8.61,22.7h-2.11l-8.61-22.7h2.37l7.3,19.48,7.32-19.48Z"/><path class="cls-3" d="M115.89,64l-6.59-9.32L102.71,64H99.87l8-11.37-8-11.34h2.87l6.56,9.32,6.56-9.32h2.88l-8,11.34,8,11.37Z"/><polygon class="cls-3" points="61.2 29.25 65.59 34.49 65.59 34.49 61.2 29.25"/><path class="cls-3" d="M64.25,28h0a10.69,10.69,0,0,0,3.49-1.36,8.6,8.6,0,0,0,2.46-2.25,9.29,9.29,0,0,0,1.45-3,13.47,13.47,0,0,0,.47-3.61,10.85,10.85,0,0,0-1.05-5.08,8.19,8.19,0,0,0-2.83-3.11,11.63,11.63,0,0,0-4-1.56,24,24,0,0,0-4.69-.44H42.17V46.05H45V28.69H58.44a6.24,6.24,0,0,1,2.76.56l3-1.3Zm-5.91-2.08H45V10.37H59.15q5,0,7.5,1.7t2.52,5.68a9.9,9.9,0,0,1-.64,3.8,5.7,5.7,0,0,1-2,2.51,8.47,8.47,0,0,1-3.35,1.39A24.6,24.6,0,0,1,58.34,25.87Z"/><polygon class="cls-3" points="69.91 34.83 67.78 32.24 67.78 32.24 69.91 34.83"/><path class="cls-3" d="M103,75,67.78,32.24h0l2.13,2.59,1,1.22-1-1.22,1,1.22-1-1.22-2.13-2.59c.13.29.26.59.39.91.26.7.58,1.51.93,2.43l2.15,5.67L99.53,75Z"/><path class="cls-3" d="M64.9,33a10.28,10.28,0,0,0-1.6-2.26,6.83,6.83,0,0,0-2.1-1.53l4.39,5.24C65.37,34,65.14,33.51,64.9,33Z"/><polygon class="cls-3" points="67.78 32.24 64.25 27.95 67.78 32.24 67.78 32.24"/><path class="cls-3" d="M68.17,33.15c-.13-.32-.26-.62-.39-.91L64.25,28l-3,1.3a6.83,6.83,0,0,1,2.1,1.53A10.28,10.28,0,0,1,64.9,33c.24.47.47,1,.69,1.45l5.66,6.76L69.1,35.58C68.75,34.66,68.43,33.85,68.17,33.15Z"/><polygon class="cls-3" points="67.78 32.24 67.78 32.24 64.25 27.95 64.25 27.95 67.78 32.24"/><polyline class="cls-3" points="99.87 63.97 91.74 75.04 94.35 75.04 102.71 63.97"/><polyline class="cls-3" points="115.89 63.97 123.91 75.04 126.69 75.04 118.74 63.97"/><path class="cls-3" d="M131.29,19.36l28.93,11.53,0,2.88L131.48,45.71l0-3.24,24.69-10.11-24.83-9.81Z"/><path class="cls-3" d="M29,46.71,0,35.29l0-2.87L28.72,20.36l0,3.23L4.11,33.81,29,43.51Z"/></g></svg>