<svg xmlns="http://www.w3.org/2000/svg" xmlns:xlink="http://www.w3.org/1999/xlink" width="500" zoomAndPan="magnify" viewBox="0 0 375 374.999991" height="500" preserveAspectRatio="xMidYMid meet" version="1.0"><defs><clipPath id="id1"><path d="M 12.648438 12.648438 L 362.148438 12.648438 L 362.148438 362.148438 L 12.648438 362.148438 Z M 12.648438 12.648438 " clip-rule="nonzero"/></clipPath><clipPath id="id2"><path d="M 66 118.960938 L 308.898438 118.960938 L 308.898438 256.210938 L 66 256.210938 Z M 66 118.960938 " clip-rule="nonzero"/></clipPath><clipPath id="id3"><path d="M 72 118.960938 L 262 118.960938 L 262 214 L 72 214 Z M 72 118.960938 " clip-rule="nonzero"/></clipPath><clipPath id="id4"><path d="M 66 118.960938 L 268 118.960938 L 268 232 L 66 232 Z M 66 118.960938 " clip-rule="nonzero"/></clipPath></defs><g clip-path="url(#id1)"><path fill="rgb(57.649231%, 43.919373%, 85.099792%)" d="M 362.148438 187.398438 C 362.148438 190.257812 362.078125 193.117188 361.9375 195.972656 C 361.796875 198.828125 361.585938 201.679688 361.308594 204.527344 C 361.027344 207.375 360.675781 210.210938 360.257812 213.039062 C 359.835938 215.867188 359.347656 218.6875 358.789062 221.492188 C 358.234375 224.296875 357.605469 227.085938 356.910156 229.859375 C 356.214844 232.632812 355.453125 235.390625 354.625 238.125 C 353.792969 240.863281 352.898438 243.578125 351.933594 246.269531 C 350.96875 248.964844 349.941406 251.628906 348.847656 254.273438 C 347.753906 256.914062 346.59375 259.527344 345.371094 262.113281 C 344.148438 264.699219 342.863281 267.253906 341.515625 269.773438 C 340.167969 272.296875 338.757812 274.785156 337.285156 277.238281 C 335.816406 279.691406 334.285156 282.105469 332.699219 284.484375 C 331.109375 286.863281 329.460938 289.199219 327.757812 291.496094 C 326.054688 293.792969 324.296875 296.046875 322.480469 298.257812 C 320.667969 300.46875 318.800781 302.632812 316.878906 304.753906 C 314.960938 306.871094 312.988281 308.941406 310.964844 310.964844 C 308.945312 312.988281 306.871094 314.960938 304.753906 316.878906 C 302.632812 318.800781 300.46875 320.667969 298.257812 322.480469 C 296.046875 324.296875 293.792969 326.054688 291.496094 327.757812 C 289.199219 329.460938 286.863281 331.109375 284.484375 332.699219 C 282.105469 334.285156 279.691406 335.816406 277.238281 337.285156 C 274.785156 338.757812 272.296875 340.167969 269.773438 341.515625 C 267.253906 342.863281 264.699219 344.148438 262.113281 345.371094 C 259.527344 346.59375 256.914062 347.753906 254.273438 348.847656 C 251.628906 349.941406 248.964844 350.96875 246.269531 351.933594 C 243.578125 352.898438 240.863281 353.792969 238.125 354.625 C 235.390625 355.453125 232.632812 356.214844 229.859375 356.910156 C 227.085938 357.605469 224.296875 358.234375 221.492188 358.789062 C 218.6875 359.347656 215.867188 359.835938 213.039062 360.257812 C 210.210938 360.675781 207.375 361.027344 204.527344 361.308594 C 201.679688 361.585938 198.828125 361.796875 195.972656 361.9375 C 193.117188 362.078125 190.257812 362.148438 187.398438 362.148438 C 184.539062 362.148438 181.679688 362.078125 178.824219 361.9375 C 175.96875 361.796875 173.117188 361.585938 170.269531 361.308594 C 167.425781 361.027344 164.585938 360.675781 161.757812 360.257812 C 158.929688 359.835938 156.113281 359.347656 153.308594 358.789062 C 150.5 358.234375 147.710938 357.605469 144.9375 356.910156 C 142.164062 356.214844 139.410156 355.453125 136.671875 354.625 C 133.933594 353.792969 131.21875 352.898438 128.527344 351.933594 C 125.835938 350.96875 123.167969 349.941406 120.523438 348.847656 C 117.882812 347.753906 115.269531 346.59375 112.683594 345.371094 C 110.097656 344.148438 107.542969 342.863281 105.023438 341.515625 C 102.5 340.167969 100.011719 338.757812 97.558594 337.285156 C 95.105469 335.816406 92.691406 334.285156 90.3125 332.699219 C 87.933594 331.109375 85.597656 329.460938 83.300781 327.757812 C 81.003906 326.054688 78.75 324.296875 76.539062 322.480469 C 74.328125 320.667969 72.164062 318.800781 70.042969 316.878906 C 67.925781 314.960938 65.855469 312.988281 63.832031 310.964844 C 61.808594 308.941406 59.839844 306.871094 57.917969 304.753906 C 55.996094 302.632812 54.128906 300.46875 52.316406 298.257812 C 50.5 296.046875 48.742188 293.792969 47.039062 291.496094 C 45.335938 289.199219 43.6875 286.863281 42.097656 284.484375 C 40.511719 282.105469 38.980469 279.691406 37.511719 277.238281 C 36.039062 274.785156 34.632812 272.296875 33.28125 269.773438 C 31.933594 267.253906 30.648438 264.699219 29.425781 262.113281 C 28.203125 259.527344 27.046875 256.914062 25.949219 254.273438 C 24.855469 251.628906 23.828125 248.964844 22.863281 246.269531 C 21.902344 243.578125 21.003906 240.863281 20.171875 238.125 C 19.34375 235.390625 18.582031 232.632812 17.886719 229.859375 C 17.191406 227.085938 16.566406 224.296875 16.007812 221.492188 C 15.449219 218.6875 14.960938 215.867188 14.539062 213.039062 C 14.121094 210.210938 13.769531 207.375 13.492188 204.527344 C 13.210938 201.679688 13 198.828125 12.859375 195.972656 C 12.71875 193.117188 12.648438 190.257812 12.648438 187.398438 C 12.648438 184.539062 12.71875 181.679688 12.859375 178.824219 C 13 175.96875 13.210938 173.117188 13.492188 170.269531 C 13.769531 167.425781 14.121094 164.585938 14.539062 161.757812 C 14.960938 158.929688 15.449219 156.113281 16.007812 153.308594 C 16.566406 150.5 17.191406 147.710938 17.886719 144.9375 C 18.582031 142.164062 19.34375 139.410156 20.171875 136.671875 C 21.003906 133.933594 21.902344 131.21875 22.863281 128.527344 C 23.828125 125.835938 24.855469 123.167969 25.949219 120.523438 C 27.046875 117.882812 28.203125 115.269531 29.425781 112.683594 C 30.648438 110.097656 31.933594 107.542969 33.28125 105.023438 C 34.632812 102.5 36.039062 100.011719 37.511719 97.558594 C 38.980469 95.105469 40.511719 92.691406 42.097656 90.3125 C 43.6875 87.933594 45.335938 85.597656 47.039062 83.300781 C 48.742188 81.003906 50.5 78.75 52.316406 76.539062 C 54.128906 74.328125 55.996094 72.164062 57.917969 70.042969 C 59.839844 67.925781 61.808594 65.855469 63.832031 63.832031 C 65.855469 61.808594 67.925781 59.839844 70.042969 57.917969 C 72.164062 55.996094 74.328125 54.128906 76.539062 52.316406 C 78.75 50.5 81.003906 48.742188 83.300781 47.039062 C 85.597656 45.335938 87.933594 43.6875 90.3125 42.097656 C 92.691406 40.511719 95.105469 38.980469 97.558594 37.511719 C 100.011719 36.039062 102.5 34.632812 105.023438 33.28125 C 107.542969 31.933594 110.097656 30.648438 112.683594 29.425781 C 115.269531 28.203125 117.882812 27.046875 120.523438 25.949219 C 123.167969 24.855469 125.835938 23.828125 128.527344 22.863281 C 131.21875 21.902344 133.933594 21.003906 136.671875 20.171875 C 139.410156 19.34375 142.164062 18.582031 144.9375 17.886719 C 147.710938 17.191406 150.5 16.566406 153.308594 16.007812 C 156.113281 15.449219 158.929688 14.960938 161.757812 14.539062 C 164.585938 14.121094 167.425781 13.769531 170.269531 13.488281 C 173.117188 13.210938 175.96875 13 178.824219 12.859375 C 181.679688 12.71875 184.539062 12.648438 187.398438 12.648438 C 190.257812 12.648438 193.117188 12.71875 195.972656 12.859375 C 198.828125 13 201.679688 13.210938 204.527344 13.488281 C 207.375 13.769531 210.210938 14.121094 213.039062 14.539062 C 215.867188 14.960938 218.6875 15.449219 221.492188 16.007812 C 224.296875 16.566406 227.085938 17.191406 229.859375 17.886719 C 232.632812 18.582031 235.390625 19.34375 238.125 20.171875 C 240.863281 21.003906 243.578125 21.902344 246.269531 22.863281 C 248.964844 23.828125 251.628906 24.855469 254.273438 25.949219 C 256.914062 27.046875 259.527344 28.203125 262.113281 29.425781 C 264.699219 30.648438 267.253906 31.933594 269.777344 33.28125 C 272.296875 34.632812 274.785156 36.039062 277.238281 37.511719 C 279.691406 38.980469 282.105469 40.511719 284.484375 42.097656 C 286.863281 43.6875 289.199219 45.335938 291.496094 47.039062 C 293.792969 48.742188 296.046875 50.5 298.257812 52.316406 C 300.46875 54.128906 302.632812 55.996094 304.753906 57.917969 C 306.871094 59.839844 308.945312 61.808594 310.964844 63.832031 C 312.988281 65.855469 314.960938 67.925781 316.878906 70.042969 C 318.800781 72.164062 320.667969 74.328125 322.480469 76.539062 C 324.296875 78.75 326.054688 81.003906 327.757812 83.300781 C 329.464844 85.597656 331.109375 87.933594 332.699219 90.3125 C 334.285156 92.691406 335.816406 95.105469 337.285156 97.558594 C 338.757812 100.011719 340.167969 102.5 341.515625 105.023438 C 342.863281 107.542969 344.148438 110.097656 345.371094 112.683594 C 346.59375 115.269531 347.753906 117.882812 348.847656 120.523438 C 349.941406 123.167969 350.96875 125.835938 351.933594 128.527344 C 352.898438 131.21875 353.792969 133.933594 354.625 136.671875 C 355.453125 139.410156 356.21875 142.164062 356.910156 144.9375 C 357.605469 147.710938 358.234375 150.5 358.789062 153.308594 C 359.347656 156.113281 359.835938 158.929688 360.257812 161.757812 C 360.675781 164.585938 361.027344 167.425781 361.308594 170.269531 C 361.585938 173.117188 361.796875 175.96875 361.9375 178.824219 C 362.078125 181.679688 362.148438 184.539062 362.148438 187.398438 Z M 362.148438 187.398438 " fill-opacity="1" fill-rule="nonzero"/></g><g clip-path="url(#id2)"><path fill="rgb(58.81958%, 88.238525%, 15.689087%)" d="M 219.140625 134.636719 C 229.082031 141.261719 237.761719 149.757812 244.574219 159.617188 C 246.691406 162.703125 248.660156 165.941406 250.476562 169.277344 C 250.476562 169.277344 250.476562 169.277344 250.425781 169.328125 C 252.496094 173.273438 254.3125 177.320312 255.828125 181.515625 L 262.1875 170.492188 C 264.910156 160.429688 274.046875 153.042969 284.945312 153.042969 C 297.964844 153.042969 308.511719 163.613281 308.511719 176.660156 C 308.511719 189.707031 297.964844 200.277344 284.945312 200.277344 C 284.085938 200.277344 283.230469 200.226562 282.421875 200.125 C 279.949219 199.875 277.628906 199.164062 275.40625 198.253906 L 265.164062 216.054688 C 266.777344 217.675781 267.789062 219.949219 267.835938 222.429688 C 267.835938 224.90625 266.828125 227.132812 265.214844 228.75 C 263.597656 230.367188 261.378906 231.378906 258.90625 231.378906 L 253.40625 231.378906 L 253.40625 243.769531 C 253.40625 248.523438 250.78125 252.621094 246.894531 254.691406 C 246.742188 254.792969 246.542969 254.894531 246.339844 254.945312 C 245.632812 255.300781 244.875 255.550781 244.070312 255.753906 C 243.664062 255.855469 243.261719 255.957031 242.859375 256.007812 C 242.453125 256.058594 242.050781 256.109375 241.597656 256.160156 C 241.394531 256.160156 241.191406 256.160156 240.941406 256.160156 C 240.6875 256.160156 240.535156 256.160156 240.285156 256.160156 C 239.878906 256.160156 239.425781 256.109375 239.023438 256.007812 C 238.617188 255.957031 238.214844 255.855469 237.8125 255.753906 C 237.003906 255.550781 236.246094 255.25 235.539062 254.945312 C 235.339844 254.84375 235.1875 254.742188 234.984375 254.691406 C 231.097656 252.570312 228.476562 248.472656 228.476562 243.769531 L 228.476562 231.378906 L 213.6875 231.378906 L 213.6875 243.769531 C 213.6875 248.523438 211.066406 252.621094 207.179688 254.691406 C 207.027344 254.792969 206.824219 254.894531 206.625 254.945312 C 205.917969 255.300781 205.160156 255.550781 204.351562 255.753906 C 203.949219 255.855469 203.546875 255.957031 203.140625 256.007812 C 202.738281 256.058594 202.335938 256.109375 201.878906 256.160156 C 201.679688 256.160156 201.476562 256.160156 201.222656 256.160156 C 200.972656 256.160156 200.820312 256.160156 200.566406 256.160156 C 200.164062 256.160156 199.710938 256.109375 199.304688 256.007812 C 198.902344 255.957031 198.5 255.855469 198.09375 255.753906 C 197.289062 255.550781 196.53125 255.25 195.824219 254.945312 C 195.621094 254.84375 195.472656 254.742188 195.269531 254.691406 C 191.382812 252.570312 188.757812 248.472656 188.757812 243.769531 L 188.757812 231.378906 L 144.046875 231.378906 L 144.046875 243.769531 C 144.046875 245.035156 143.84375 246.296875 143.492188 247.460938 C 143.390625 247.867188 143.238281 248.21875 143.089844 248.625 C 142.835938 249.179688 142.582031 249.738281 142.28125 250.242188 C 140.109375 253.832031 136.175781 256.210938 131.683594 256.210938 C 124.820312 256.210938 119.269531 250.648438 119.269531 243.769531 L 119.269531 231.378906 L 104.632812 231.378906 L 104.632812 243.769531 C 104.632812 245.035156 104.433594 246.296875 104.078125 247.460938 C 103.976562 247.867188 103.828125 248.21875 103.675781 248.625 C 103.421875 249.179688 103.171875 249.738281 102.867188 250.242188 C 100.699219 253.832031 96.761719 256.210938 92.269531 256.210938 C 85.40625 256.210938 79.855469 250.648438 79.855469 243.769531 L 79.855469 231.378906 L 75.261719 231.378906 C 70.316406 231.378906 66.332031 227.382812 66.332031 222.429688 C 66.332031 219.949219 67.339844 217.726562 68.957031 216.105469 C 70.570312 214.488281 72.789062 213.476562 75.261719 213.476562 L 72.789062 213.476562 C 72.789062 197.242188 76.878906 182.023438 84.042969 168.671875 C 85.710938 165.535156 87.578125 162.5 89.59375 159.617188 C 96.558594 149.503906 105.492188 140.855469 115.785156 134.183594 L 115.835938 134.183594 C 115.835938 134.183594 115.785156 134.132812 115.785156 134.132812 C 119.472656 131.703125 123.355469 129.578125 127.394531 127.65625 C 131.429688 125.785156 135.621094 124.167969 139.960938 122.855469 C 141.171875 122.5 142.433594 122.144531 143.695312 121.792969 C 146.46875 121.082031 149.347656 120.527344 152.273438 120.074219 C 154.191406 119.769531 156.160156 119.515625 158.128906 119.363281 C 161.105469 119.113281 164.082031 118.960938 167.109375 118.960938 C 175.183594 118.960938 183.007812 119.972656 190.476562 121.894531 C 200.820312 124.523438 210.507812 128.921875 219.140625 134.636719 " fill-opacity="1" fill-rule="nonzero"/></g><g clip-path="url(#id3)"><path fill="rgb(55.288696%, 77.648926%, 24.708557%)" d="M 261.378906 213.476562 L 72.742188 213.476562 C 72.742188 197.242188 76.828125 182.023438 83.992188 168.671875 C 87.878906 171.554688 92.722656 173.273438 97.972656 173.273438 C 98.929688 173.273438 99.941406 173.222656 100.847656 173.070312 C 112.507812 171.65625 121.539062 161.691406 121.539062 149.605469 C 121.539062 143.6875 119.371094 138.277344 115.785156 134.132812 C 124.265625 128.617188 133.652344 124.421875 143.695312 121.84375 C 151.113281 119.972656 158.984375 118.960938 167.058594 118.960938 C 175.132812 118.960938 182.957031 119.972656 190.425781 121.894531 C 200.769531 124.523438 210.460938 128.921875 219.089844 134.636719 C 215.757812 138.734375 213.738281 143.941406 213.738281 149.605469 C 213.738281 161.339844 222.21875 171.046875 233.371094 172.917969 C 234.632812 173.121094 235.945312 173.273438 237.304688 173.273438 C 242.152344 173.273438 246.691406 171.808594 250.425781 169.277344 C 252.496094 173.222656 254.3125 177.269531 255.828125 181.515625 C 259.410156 191.480469 261.378906 202.25 261.378906 213.476562 Z M 261.378906 213.476562 " fill-opacity="1" fill-rule="nonzero"/></g><g clip-path="url(#id4)"><path fill="rgb(76.078796%, 90.589905%, 50.19989%)" d="M 190.425781 121.894531 C 189.011719 133.574219 179.070312 142.578125 167.058594 142.578125 C 155.046875 142.578125 145.105469 133.574219 143.695312 121.894531 C 151.113281 119.972656 158.984375 118.960938 167.058594 118.960938 C 175.132812 118.960938 182.957031 119.972656 190.425781 121.894531 Z M 167.058594 153.042969 C 154.039062 153.042969 143.492188 163.613281 143.492188 176.660156 C 143.492188 189.707031 154.039062 200.277344 167.058594 200.277344 C 180.078125 200.277344 190.625 189.707031 190.625 176.660156 C 190.625 163.613281 180.078125 153.042969 167.058594 153.042969 Z M 265.164062 216.054688 C 263.546875 214.4375 261.328125 213.476562 258.90625 213.476562 L 75.214844 213.476562 C 72.742188 213.476562 70.519531 214.488281 68.90625 216.105469 C 67.289062 217.726562 66.28125 219.949219 66.28125 222.429688 C 66.28125 227.382812 70.265625 231.378906 75.214844 231.378906 L 258.90625 231.378906 C 261.378906 231.378906 263.597656 230.367188 265.214844 228.75 C 266.828125 227.132812 267.835938 224.90625 267.835938 222.429688 C 267.789062 219.949219 266.777344 217.675781 265.164062 216.054688 Z M 115.738281 134.183594 C 105.441406 140.855469 96.507812 149.503906 89.546875 159.617188 C 87.527344 162.5 85.660156 165.535156 83.992188 168.671875 C 87.878906 171.554688 92.722656 173.273438 97.972656 173.273438 C 98.929688 173.273438 99.941406 173.222656 100.847656 173.070312 C 112.507812 171.65625 121.539062 161.691406 121.539062 149.605469 C 121.488281 143.6875 119.320312 138.328125 115.738281 134.183594 Z M 244.574219 159.617188 C 237.761719 149.757812 229.082031 141.261719 219.140625 134.636719 C 215.808594 138.734375 213.789062 143.941406 213.789062 149.605469 C 213.789062 161.339844 222.269531 171.046875 233.421875 172.917969 C 234.683594 173.121094 235.996094 173.273438 237.355469 173.273438 C 242.203125 173.273438 246.742188 171.808594 250.476562 169.277344 C 248.660156 165.941406 246.691406 162.703125 244.574219 159.617188 Z M 244.574219 159.617188 " fill-opacity="1" fill-rule="nonzero"/></g><path fill="rgb(33.329773%, 41.178894%, 49.01886%)" d="M 291.554688 174.132812 C 291.554688 175.5 290.445312 176.609375 289.082031 176.609375 C 287.722656 176.609375 286.609375 175.5 286.609375 174.132812 C 286.609375 172.765625 287.722656 171.65625 289.082031 171.65625 C 290.445312 171.65625 291.554688 172.765625 291.554688 174.132812 Z M 291.554688 174.132812 " fill-opacity="1" fill-rule="nonzero"/></svg>