<svg xmlns="http://www.w3.org/2000/svg" xmlns:xlink="http://www.w3.org/1999/xlink" width="500" zoomAndPan="magnify" viewBox="0 0 375 374.999991" height="500" preserveAspectRatio="xMidYMid meet" version="1.0"><defs><clipPath id="id1"><path d="M 12.648438 12.648438 L 362.148438 12.648438 L 362.148438 362.148438 L 12.648438 362.148438 Z M 12.648438 12.648438 " clip-rule="nonzero"/></clipPath><clipPath id="id2"><path d="M 69 100.703125 L 307 100.703125 L 307 272 L 69 272 Z M 69 100.703125 " clip-rule="nonzero"/></clipPath><clipPath id="id3"><path d="M 69 100.703125 L 175 100.703125 L 175 218 L 69 218 Z M 69 100.703125 " clip-rule="nonzero"/></clipPath></defs><g clip-path="url(#id1)"><path fill="rgb(78.819275%, 88.62915%, 39.608765%)" d="M 362.148438 187.398438 C 362.148438 190.257812 362.078125 193.117188 361.9375 195.972656 C 361.796875 198.832031 361.585938 201.679688 361.308594 204.527344 C 361.027344 207.375 360.675781 210.210938 360.257812 213.039062 C 359.835938 215.871094 359.347656 218.6875 358.789062 221.492188 C 358.234375 224.296875 357.605469 227.085938 356.910156 229.859375 C 356.214844 232.632812 355.453125 235.390625 354.625 238.125 C 353.792969 240.863281 352.898438 243.578125 351.933594 246.269531 C 350.96875 248.964844 349.941406 251.632812 348.847656 254.273438 C 347.753906 256.914062 346.59375 259.527344 345.371094 262.113281 C 344.148438 264.699219 342.863281 267.253906 341.515625 269.777344 C 340.167969 272.296875 338.757812 274.785156 337.285156 277.238281 C 335.816406 279.691406 334.285156 282.105469 332.699219 284.484375 C 331.109375 286.863281 329.460938 289.199219 327.757812 291.496094 C 326.054688 293.792969 324.296875 296.046875 322.480469 298.257812 C 320.667969 300.46875 318.800781 302.636719 316.878906 304.753906 C 314.960938 306.875 312.988281 308.945312 310.964844 310.964844 C 308.945312 312.988281 306.871094 314.960938 304.753906 316.878906 C 302.632812 318.800781 300.46875 320.667969 298.257812 322.484375 C 296.046875 324.296875 293.792969 326.054688 291.496094 327.757812 C 289.199219 329.464844 286.863281 331.109375 284.484375 332.699219 C 282.105469 334.289062 279.691406 335.816406 277.238281 337.289062 C 274.785156 338.757812 272.296875 340.167969 269.773438 341.515625 C 267.253906 342.863281 264.699219 344.148438 262.113281 345.371094 C 259.527344 346.59375 256.914062 347.753906 254.273438 348.847656 C 251.628906 349.941406 248.964844 350.96875 246.269531 351.933594 C 243.578125 352.898438 240.863281 353.792969 238.125 354.625 C 235.390625 355.453125 232.632812 356.21875 229.859375 356.910156 C 227.085938 357.605469 224.296875 358.234375 221.492188 358.792969 C 218.6875 359.347656 215.867188 359.839844 213.039062 360.257812 C 210.210938 360.675781 207.375 361.027344 204.527344 361.308594 C 201.679688 361.589844 198.828125 361.796875 195.972656 361.9375 C 193.117188 362.078125 190.257812 362.148438 187.398438 362.148438 C 184.539062 362.148438 181.679688 362.078125 178.824219 361.9375 C 175.96875 361.796875 173.117188 361.589844 170.269531 361.308594 C 167.425781 361.027344 164.585938 360.675781 161.757812 360.257812 C 158.929688 359.839844 156.113281 359.347656 153.308594 358.792969 C 150.5 358.234375 147.710938 357.605469 144.9375 356.910156 C 142.164062 356.21875 139.410156 355.453125 136.671875 354.625 C 133.933594 353.792969 131.21875 352.898438 128.527344 351.933594 C 125.835938 350.96875 123.167969 349.941406 120.523438 348.847656 C 117.882812 347.753906 115.269531 346.59375 112.683594 345.371094 C 110.097656 344.148438 107.542969 342.863281 105.023438 341.515625 C 102.5 340.167969 100.011719 338.757812 97.558594 337.289062 C 95.105469 335.816406 92.691406 334.289062 90.3125 332.699219 C 87.933594 331.109375 85.597656 329.464844 83.300781 327.757812 C 81.003906 326.054688 78.75 324.296875 76.539062 322.484375 C 74.328125 320.667969 72.164062 318.800781 70.042969 316.878906 C 67.925781 314.960938 65.855469 312.988281 63.832031 310.964844 C 61.808594 308.945312 59.839844 306.875 57.917969 304.753906 C 55.996094 302.636719 54.128906 300.46875 52.316406 298.257812 C 50.5 296.046875 48.742188 293.792969 47.039062 291.496094 C 45.335938 289.199219 43.6875 286.863281 42.097656 284.484375 C 40.511719 282.105469 38.980469 279.691406 37.511719 277.238281 C 36.039062 274.785156 34.632812 272.296875 33.28125 269.777344 C 31.933594 267.253906 30.648438 264.699219 29.425781 262.113281 C 28.203125 259.527344 27.046875 256.914062 25.949219 254.273438 C 24.855469 251.628906 23.828125 248.964844 22.863281 246.269531 C 21.902344 243.578125 21.003906 240.863281 20.171875 238.125 C 19.34375 235.390625 18.582031 232.632812 17.886719 229.859375 C 17.191406 227.085938 16.566406 224.296875 16.007812 221.492188 C 15.449219 218.6875 14.960938 215.871094 14.539062 213.039062 C 14.121094 210.210938 13.769531 207.375 13.492188 204.527344 C 13.210938 201.679688 13 198.832031 12.859375 195.972656 C 12.71875 193.117188 12.648438 190.257812 12.648438 187.398438 C 12.648438 184.539062 12.71875 181.679688 12.859375 178.824219 C 13 175.96875 13.210938 173.117188 13.492188 170.269531 C 13.769531 167.425781 14.121094 164.585938 14.539062 161.757812 C 14.960938 158.929688 15.449219 156.113281 16.007812 153.308594 C 16.566406 150.503906 17.191406 147.710938 17.886719 144.9375 C 18.582031 142.164062 19.34375 139.410156 20.171875 136.671875 C 21.003906 133.933594 21.902344 131.21875 22.863281 128.527344 C 23.828125 125.835938 24.855469 123.167969 25.949219 120.523438 C 27.046875 117.882812 28.203125 115.269531 29.425781 112.683594 C 30.648438 110.097656 31.933594 107.542969 33.28125 105.023438 C 34.632812 102.5 36.039062 100.011719 37.511719 97.558594 C 38.980469 95.105469 40.511719 92.691406 42.097656 90.3125 C 43.6875 87.933594 45.335938 85.597656 47.039062 83.300781 C 48.742188 81.003906 50.5 78.75 52.316406 76.539062 C 54.128906 74.328125 55.996094 72.164062 57.917969 70.042969 C 59.839844 67.925781 61.808594 65.855469 63.832031 63.832031 C 65.855469 61.808594 67.925781 59.839844 70.042969 57.917969 C 72.164062 55.996094 74.328125 54.128906 76.539062 52.316406 C 78.75 50.5 81.003906 48.742188 83.300781 47.039062 C 85.597656 45.335938 87.933594 43.6875 90.3125 42.101562 C 92.691406 40.511719 95.105469 38.980469 97.558594 37.511719 C 100.011719 36.039062 102.5 34.632812 105.023438 33.285156 C 107.542969 31.933594 110.097656 30.648438 112.683594 29.425781 C 115.269531 28.203125 117.882812 27.046875 120.523438 25.953125 C 123.167969 24.855469 125.835938 23.828125 128.527344 22.863281 C 131.21875 21.902344 133.933594 21.003906 136.671875 20.175781 C 139.410156 19.34375 142.164062 18.582031 144.9375 17.886719 C 147.710938 17.191406 150.5 16.566406 153.308594 16.007812 C 156.113281 15.449219 158.929688 14.960938 161.757812 14.539062 C 164.585938 14.121094 167.425781 13.769531 170.269531 13.492188 C 173.117188 13.210938 175.96875 13 178.824219 12.859375 C 181.679688 12.71875 184.539062 12.648438 187.398438 12.648438 C 190.257812 12.648438 193.117188 12.71875 195.972656 12.859375 C 198.828125 13 201.679688 13.210938 204.527344 13.492188 C 207.375 13.769531 210.210938 14.121094 213.039062 14.539062 C 215.867188 14.960938 218.6875 15.449219 221.492188 16.007812 C 224.296875 16.566406 227.085938 17.191406 229.859375 17.886719 C 232.632812 18.582031 235.390625 19.34375 238.125 20.175781 C 240.863281 21.003906 243.578125 21.902344 246.269531 22.863281 C 248.964844 23.828125 251.628906 24.855469 254.273438 25.953125 C 256.914062 27.046875 259.527344 28.203125 262.113281 29.425781 C 264.699219 30.648438 267.253906 31.933594 269.777344 33.285156 C 272.296875 34.632812 274.785156 36.039062 277.238281 37.511719 C 279.691406 38.980469 282.105469 40.511719 284.484375 42.101562 C 286.863281 43.6875 289.199219 45.335938 291.496094 47.039062 C 293.792969 48.742188 296.046875 50.5 298.257812 52.316406 C 300.46875 54.128906 302.632812 55.996094 304.753906 57.917969 C 306.871094 59.839844 308.945312 61.808594 310.964844 63.832031 C 312.988281 65.855469 314.960938 67.925781 316.878906 70.042969 C 318.800781 72.164062 320.667969 74.328125 322.480469 76.539062 C 324.296875 78.75 326.054688 81.003906 327.757812 83.300781 C 329.464844 85.597656 331.109375 87.933594 332.699219 90.3125 C 334.285156 92.691406 335.816406 95.105469 337.285156 97.558594 C 338.757812 100.011719 340.167969 102.5 341.515625 105.023438 C 342.863281 107.542969 344.148438 110.097656 345.371094 112.683594 C 346.59375 115.269531 347.753906 117.882812 348.847656 120.523438 C 349.941406 123.167969 350.96875 125.835938 351.933594 128.527344 C 352.898438 131.21875 353.792969 133.933594 354.625 136.671875 C 355.453125 139.410156 356.21875 142.164062 356.910156 144.9375 C 357.605469 147.710938 358.234375 150.503906 358.789062 153.308594 C 359.347656 156.113281 359.835938 158.929688 360.257812 161.757812 C 360.675781 164.585938 361.027344 167.425781 361.308594 170.269531 C 361.585938 173.117188 361.796875 175.96875 361.9375 178.824219 C 362.078125 181.679688 362.148438 184.539062 362.148438 187.398438 Z M 362.148438 187.398438 " fill-opacity="1" fill-rule="nonzero"/></g><g clip-path="url(#id2)"><path fill="rgb(56.858826%, 66.668701%, 100%)" d="M 306.628906 198.179688 C 306.628906 199.03125 306.578125 199.929688 306.527344 200.78125 C 306.429688 202.53125 306.277344 204.230469 306.078125 205.933594 C 305.425781 211.082031 304.222656 216.085938 302.46875 220.835938 C 297.410156 234.742188 287.9375 246.84375 275.261719 255.097656 C 272.90625 256.597656 270.453125 257.949219 267.945312 259.246094 C 260.832031 262.949219 253.214844 265.898438 245.097656 268.050781 C 222.902344 273.902344 200.503906 272.601562 180.363281 265.550781 L 180.363281 265.5 C 154.609375 256.496094 132.613281 238.191406 119.335938 213.484375 C 119.335938 213.433594 119.285156 213.382812 119.285156 213.335938 C 118.882812 212.585938 118.484375 211.835938 118.132812 211.082031 C 118.082031 210.933594 117.980469 210.785156 117.933594 210.632812 C 117.582031 209.984375 117.28125 209.332031 116.980469 208.632812 C 116.878906 208.382812 116.730469 208.132812 116.628906 207.882812 C 116.378906 207.332031 116.128906 206.734375 115.828125 206.132812 C 115.675781 205.78125 115.527344 205.433594 115.375 205.082031 C 115.175781 204.582031 114.976562 204.132812 114.777344 203.632812 C 114.574219 203.179688 114.425781 202.78125 114.222656 202.332031 L 114.125 202.332031 C 112.421875 198.128906 111.019531 193.777344 109.816406 189.277344 C 107.109375 179.023438 105.957031 168.773438 106.15625 158.667969 C 89.621094 156.816406 75.242188 145.113281 70.785156 128.160156 C 68.277344 118.855469 69.179688 109.40625 72.789062 101.203125 C 72.988281 100.703125 73.738281 100.753906 73.890625 101.253906 C 78.449219 118.507812 92.730469 126.960938 109.464844 128.558594 C 113.023438 128.910156 116.679688 128.808594 120.335938 128.210938 C 121.589844 128.011719 122.894531 127.761719 124.144531 127.410156 C 135.46875 124.410156 144.890625 120.40625 150.199219 111.054688 C 150.652344 110.253906 151.851562 110.453125 152.003906 111.355469 C 155.160156 132.0625 142.234375 152.21875 121.539062 157.667969 C 120.636719 157.917969 119.6875 158.117188 118.785156 158.320312 C 119.136719 161.46875 119.734375 164.671875 120.585938 167.820312 C 123.792969 179.773438 129.90625 190.226562 138.023438 198.429688 C 138.074219 198.429688 138.074219 198.429688 138.125 198.429688 C 138.125 198.429688 138.125 198.429688 138.175781 198.480469 C 153.605469 193.078125 166.082031 182.625 174.148438 169.570312 C 174.148438 169.523438 174.199219 169.472656 174.199219 169.421875 C 174.800781 167.972656 175.503906 166.570312 176.203125 165.171875 C 176.90625 163.769531 177.707031 162.417969 178.558594 161.070312 C 178.558594 161.070312 178.558594 161.070312 178.558594 161.019531 C 182.769531 154.167969 188.179688 148.066406 194.542969 143.015625 C 195.847656 142.015625 197.148438 141.011719 198.5 140.113281 C 199.402344 139.511719 200.304688 138.914062 201.257812 138.3125 C 202.660156 137.460938 204.113281 136.613281 205.566406 135.863281 C 206.566406 135.363281 207.570312 134.863281 208.574219 134.410156 C 212.128906 132.761719 215.886719 131.460938 219.796875 130.410156 C 225.558594 128.910156 231.371094 128.160156 237.03125 128.109375 C 238.484375 128.109375 239.988281 128.160156 241.441406 128.210938 C 245.648438 128.460938 249.757812 129.058594 253.765625 130.058594 C 259.328125 131.410156 264.691406 133.460938 269.75 136.113281 C 270.351562 136.414062 270.953125 136.761719 271.554688 137.113281 C 275.664062 139.414062 279.519531 142.164062 283.027344 145.265625 C 284.433594 146.515625 285.835938 147.765625 287.136719 149.117188 C 288.492188 150.515625 289.792969 151.96875 291.046875 153.515625 C 291.496094 154.066406 291.898438 154.566406 292.296875 155.117188 C 292.847656 155.816406 293.351562 156.519531 293.902344 157.269531 C 294.402344 157.96875 294.855469 158.617188 295.304688 159.367188 C 296.707031 161.519531 298.058594 163.769531 299.210938 166.121094 C 299.5625 166.820312 299.914062 167.519531 300.265625 168.273438 C 300.917969 169.722656 301.566406 171.171875 302.117188 172.671875 C 302.96875 174.921875 303.722656 177.222656 304.375 179.625 C 305.527344 184.074219 306.277344 188.527344 306.527344 192.980469 C 306.628906 194.679688 306.679688 196.429688 306.628906 198.179688 Z M 306.628906 198.179688 " fill-opacity="1" fill-rule="nonzero"/></g><g clip-path="url(#id3)"><path fill="rgb(45.098877%, 56.858826%, 100%)" d="M 171.195312 217.335938 C 158.617188 214.285156 147.042969 207.734375 138.023438 198.480469 C 153.507812 193.078125 166.035156 182.574219 174.101562 169.421875 C 167.988281 183.226562 166.332031 199.179688 170.492188 214.886719 C 170.691406 215.734375 170.945312 216.535156 171.195312 217.335938 Z M 137.972656 198.480469 C 129.855469 190.226562 123.746094 179.773438 120.539062 167.820312 C 119.6875 164.671875 119.085938 161.46875 118.734375 158.320312 C 119.636719 158.117188 120.585938 157.917969 121.488281 157.667969 C 142.234375 152.21875 155.109375 132.0625 151.953125 111.355469 C 151.804688 110.453125 150.601562 110.253906 150.148438 111.054688 C 144.839844 120.457031 135.417969 124.410156 124.09375 127.410156 C 122.84375 127.761719 121.539062 128.011719 120.289062 128.210938 C 116.628906 128.808594 112.972656 128.910156 109.414062 128.558594 C 92.730469 126.960938 78.449219 118.507812 73.890625 101.253906 C 73.738281 100.703125 72.988281 100.703125 72.789062 101.203125 C 69.230469 109.40625 68.277344 118.855469 70.785156 128.160156 C 75.242188 145.113281 89.621094 156.816406 106.058594 158.769531 C 105.855469 168.871094 107.007812 179.125 109.714844 189.378906 C 110.917969 193.878906 112.320312 198.230469 114.023438 202.429688 C 120.1875 202.53125 126.5 201.78125 132.714844 200.128906 C 134.515625 199.628906 136.269531 199.082031 137.972656 198.480469 Z M 137.972656 198.480469 " fill-opacity="1" fill-rule="nonzero"/></g><path fill="rgb(71.759033%, 78.42865%, 100%)" d="M 302.46875 220.886719 C 297.410156 234.789062 287.9375 246.894531 275.261719 255.148438 C 272.90625 256.648438 270.453125 257.996094 267.945312 259.296875 C 260.832031 263 253.214844 265.949219 245.097656 268.101562 C 222.902344 273.953125 200.503906 272.652344 180.363281 265.597656 C 180.363281 257.398438 181.816406 249.445312 184.523438 241.941406 C 187.730469 233.191406 192.6875 225.136719 199.050781 218.335938 C 207.621094 209.132812 218.84375 202.179688 231.921875 198.78125 C 233.925781 198.230469 235.980469 197.828125 237.984375 197.480469 C 262.6875 193.230469 287.039062 202.679688 302.46875 220.886719 Z M 302.46875 220.886719 " fill-opacity="1" fill-rule="nonzero"/><path fill="rgb(33.329773%, 41.178894%, 49.01886%)" d="M 288.191406 186.175781 C 288.191406 188.425781 286.386719 190.226562 284.132812 190.226562 C 281.875 190.226562 280.074219 188.425781 280.074219 186.175781 C 280.074219 183.925781 281.875 182.125 284.132812 182.125 C 286.386719 182.125 288.191406 183.925781 288.191406 186.175781 Z M 206.917969 183.074219 C 204.664062 183.074219 202.859375 184.875 202.859375 187.128906 C 202.859375 189.378906 204.664062 191.179688 206.917969 191.179688 C 209.171875 191.179688 210.976562 189.378906 210.976562 187.128906 C 210.976562 184.875 209.171875 183.074219 206.917969 183.074219 Z M 242.242188 187.128906 C 242.242188 190.828125 245.25 193.878906 249.007812 193.878906 C 252.765625 193.878906 255.773438 190.878906 255.773438 187.128906 Z M 242.242188 187.128906 " fill-opacity="1" fill-rule="nonzero"/><path fill="rgb(71.759033%, 78.42865%, 100%)" d="M 171.195312 217.285156 C 170.945312 216.484375 170.691406 215.734375 170.492188 214.886719 C 168.9375 208.984375 168.1875 203.03125 168.1875 197.179688 C 168.1875 202.980469 168.9375 208.933594 170.492188 214.835938 C 170.742188 215.683594 170.945312 216.484375 171.195312 217.285156 Z M 190.636719 229.390625 C 192.890625 225.6875 195.546875 222.238281 198.453125 218.984375 C 195.546875 222.1875 192.890625 225.6875 190.636719 229.390625 Z M 190.636719 229.390625 " fill-opacity="1" fill-rule="nonzero"/></svg>