<?xml version="1.0" encoding="UTF-8"?><svg xmlns="http://www.w3.org/2000/svg" viewBox="0 0 210.09 121.74"><defs><style>.c{fill:#7e77b8;}.d{fill:none;}.e{fill:#4e57a6;}</style></defs><g id="a"><g><path class="c" d="M106.15,70.47c-1.58,0-3.02-.27-4.31-.81-1.29-.54-2.4-1.32-3.33-2.34s-1.65-2.28-2.15-3.76c-.51-1.48-.76-3.17-.76-5.07s.24-3.49,.73-4.97c.49-1.47,1.18-2.72,2.08-3.75s1.96-1.81,3.19-2.36c1.23-.55,2.6-.82,4.1-.82s2.94,.27,4.19,.82c1.25,.55,2.31,1.33,3.19,2.36s1.55,2.28,2.02,3.75c.47,1.48,.7,3.14,.7,5v.53h-17.87c.12,1.54,.4,2.88,.85,4.01,.45,1.13,1.04,2.08,1.76,2.83,.72,.75,1.56,1.31,2.5,1.68,.95,.37,1.98,.56,3.09,.56,.78,0,1.56-.09,2.34-.28,.78-.19,1.49-.46,2.12-.83,.63-.37,1.17-.83,1.6-1.38,.43-.55,.68-1.17,.76-1.88h2.31c-.21,1.07-.6,2.03-1.14,2.86-.55,.83-1.22,1.53-2.02,2.11-.8,.58-1.71,1.01-2.72,1.3-1.02,.29-2.1,.44-3.25,.44Zm7.29-13.77c-.39-2.6-1.27-4.54-2.65-5.83s-3.07-1.93-5.08-1.93c-1,0-1.92,.16-2.78,.47-.86,.31-1.63,.79-2.3,1.44s-1.24,1.46-1.7,2.43c-.46,.98-.79,2.12-.98,3.43h15.5Z"/><path class="c" d="M139.02,47.18l-8.61,22.7h-2.11l-8.61-22.7h2.37l7.29,19.48,7.32-19.48h2.34Z"/></g><path class="c" d="M116.39,98.05l-7.39-8.7-5.75,9.86-2.83,.25,6.97-12.03-8.96-10.59,2.86-.25,7.36,8.7,5.72-9.86,2.86-.25-6.97,12,8.97,10.62-2.83,.25Z"/><polygon class="c" points="81.36 56.7 85.75 61.94 85.75 61.94 81.36 56.7"/><path class="c" d="M84.41,55.4h0c1.34-.28,2.5-.73,3.5-1.35,1-.62,1.82-1.37,2.46-2.25,.64-.88,1.12-1.88,1.44-2.99,.32-1.11,.47-2.31,.47-3.6,0-2.06-.35-3.76-1.05-5.08-.7-1.32-1.65-2.36-2.83-3.11-1.18-.75-2.53-1.27-4.04-1.56-1.51-.29-3.08-.44-4.69-.44h-17.33v38.5h2.81v-17.37h13.46c1.05,0,1.97,.19,2.76,.56l3.04-1.3h0Zm-5.91-2.07h-13.36v-15.5h14.17c3.33,0,5.83,.57,7.51,1.71,1.68,1.14,2.51,3.03,2.51,5.68,0,1.5-.21,2.77-.63,3.8-.42,1.03-1.07,1.87-1.95,2.51-.88,.65-2,1.11-3.36,1.39-1.36,.28-2.99,.42-4.89,.42Z"/><polygon class="c" points="90.07 62.28 87.94 59.69 87.94 59.69 90.07 62.28"/><path class="c" d="M123.16,102.49l-35.22-42.8h0l2.13,2.59,1,1.22-1-1.22,1,1.22-1-1.22-2.13-2.59c.14,.29,.27,.59,.39,.91,.27,.7,.58,1.51,.93,2.43l2.15,5.67,28.29,33.8h3.47Z"/><path class="c" d="M85.06,60.49c-.46-.87-.99-1.62-1.6-2.27-.61-.64-1.31-1.15-2.09-1.53l4.39,5.24c-.22-.5-.45-.98-.7-1.45Z"/><polygon class="c" points="87.94 59.69 84.41 55.4 87.94 59.69 87.94 59.69"/><path class="c" d="M88.33,60.6c-.12-.32-.25-.62-.39-.91l-3.53-4.29-3.04,1.3c.79,.38,1.48,.88,2.09,1.53,.61,.65,1.14,1.4,1.6,2.27,.24,.46,.48,.95,.7,1.45l5.65,6.76-2.15-5.67c-.35-.91-.66-1.72-.93-2.43Z"/><polygon class="c" points="87.94 59.69 87.94 59.69 84.41 55.4 84.41 55.4 87.94 59.69"/><path class="c" d="M151.45,46.81l28.93,11.53,.02,2.87-28.77,11.94-.02-3.23,24.68-10.12-24.83-9.8-.02-3.19Z"/><path class="c" d="M49.17,74.16l-28.98-11.42-.03-2.87,28.72-12.06,.04,3.23-24.64,10.22,24.87,9.7,.04,3.19Z"/><path class="c" d="M106.05,93.65h0c-.27-.13-.53-.28-.78-.44h0l-.05-.03h0c-.24-.16-.46-.33-.67-.51h0c-.07-.02-.14-.03-.21-.05l-6.39,11.03,2.83-.25,5.57-9.56c-.11-.06-.21-.13-.31-.19h0Z"/></g><g id="b"><g><path class="e" d="M103.09,69.59c-1.58,0-3.02-.27-4.31-.81-1.29-.54-2.4-1.32-3.33-2.34s-1.65-2.28-2.15-3.76c-.51-1.48-.76-3.17-.76-5.07s.24-3.49,.73-4.97c.49-1.47,1.18-2.72,2.08-3.75s1.96-1.81,3.19-2.36c1.23-.55,2.6-.82,4.1-.82s2.94,.27,4.19,.82c1.25,.55,2.31,1.33,3.19,2.36s1.55,2.28,2.02,3.75c.47,1.48,.7,3.14,.7,5v.53h-17.87c.12,1.54,.4,2.88,.85,4.01,.45,1.13,1.04,2.08,1.76,2.83,.72,.75,1.56,1.31,2.5,1.68,.95,.37,1.98,.56,3.09,.56,.78,0,1.56-.09,2.34-.28,.78-.19,1.49-.46,2.12-.83,.63-.37,1.17-.83,1.6-1.38,.43-.55,.68-1.17,.76-1.88h2.31c-.21,1.07-.6,2.03-1.14,2.86-.55,.83-1.22,1.53-2.02,2.11-.8,.58-1.71,1.01-2.72,1.3-1.02,.29-2.1,.44-3.25,.44Zm7.29-13.77c-.39-2.6-1.27-4.54-2.65-5.83s-3.07-1.93-5.08-1.93c-1,0-1.92,.16-2.78,.47-.86,.31-1.63,.79-2.3,1.44s-1.24,1.46-1.7,2.43c-.46,.98-.79,2.12-.98,3.43h15.5Z"/><path class="e" d="M135.96,46.3l-8.61,22.7h-2.11l-8.61-22.7h2.37l7.29,19.48,7.32-19.48h2.34Z"/></g><path class="e" d="M113.33,97.18l-7.39-8.7-5.75,9.86-2.83,.25,6.97-12.03-8.96-10.59,2.86-.25,7.36,8.7,5.72-9.86,2.86-.25-6.97,12,8.97,10.62-2.83,.25Z"/><polygon class="e" points="78.3 55.82 82.69 61.06 82.69 61.06 78.3 55.82"/><path class="e" d="M81.34,54.52h0c1.34-.28,2.5-.73,3.5-1.35,1-.62,1.82-1.37,2.46-2.25,.64-.88,1.12-1.88,1.44-2.99,.32-1.11,.47-2.31,.47-3.6,0-2.06-.35-3.76-1.05-5.08-.7-1.32-1.65-2.36-2.83-3.11-1.18-.75-2.53-1.27-4.04-1.56-1.51-.29-3.08-.44-4.69-.44h-17.33v38.5h2.81v-17.37h13.46c1.05,0,1.97,.19,2.76,.56l3.04-1.3h0Zm-5.91-2.07h-13.36v-15.5h14.17c3.33,0,5.83,.57,7.51,1.71,1.68,1.14,2.51,3.03,2.51,5.68,0,1.5-.21,2.77-.63,3.8-.42,1.03-1.07,1.87-1.95,2.51-.88,.65-2,1.11-3.36,1.39-1.36,.28-2.99,.42-4.89,.42Z"/><polygon class="e" points="87 61.4 84.87 58.81 84.87 58.81 87 61.4"/><path class="e" d="M120.1,101.61l-35.22-42.8h0l2.13,2.59,1,1.22-1-1.22,1,1.22-1-1.22-2.13-2.59c.14,.29,.27,.59,.39,.91,.27,.7,.58,1.51,.93,2.43l2.15,5.67,28.29,33.8h3.47Z"/><path class="e" d="M81.99,59.61c-.46-.87-.99-1.62-1.6-2.27-.61-.64-1.31-1.15-2.09-1.53l4.39,5.24c-.22-.5-.45-.98-.7-1.45Z"/><polygon class="e" points="84.87 58.81 81.34 54.52 84.87 58.81 84.87 58.81"/><path class="e" d="M85.26,59.72c-.12-.32-.25-.62-.39-.91l-3.53-4.29-3.04,1.3c.79,.38,1.48,.88,2.09,1.53,.61,.65,1.14,1.4,1.6,2.27,.24,.46,.48,.95,.7,1.45l5.65,6.76-2.15-5.67c-.35-.91-.66-1.72-.93-2.43Z"/><polygon class="e" points="84.87 58.81 84.87 58.81 81.34 54.52 81.34 54.52 84.87 58.81"/><path class="e" d="M148.39,45.93l28.93,11.53,.02,2.87-28.77,11.94-.02-3.23,24.68-10.12-24.83-9.8-.02-3.19Z"/><path class="e" d="M46.11,73.28l-28.98-11.42-.03-2.87,28.72-12.06,.04,3.23-24.64,10.22,24.87,9.7,.04,3.19Z"/><path class="e" d="M102.98,92.77h0c-.27-.13-.53-.28-.78-.44h0l-.05-.03h0c-.24-.16-.46-.33-.67-.51h0c-.07-.02-.14-.03-.21-.05l-6.39,11.03,2.83-.25,5.57-9.56c-.11-.06-.21-.13-.31-.19h0Z"/><line class="d" x1="146.07" y1="10.37" x2="147.68" y2="12.28"/></g></svg>