<svg xmlns="http://www.w3.org/2000/svg" viewBox="0 0 210.09 121.74"><defs><style>.cls-1{fill:#a5a0ce;}.cls-2{fill:#4e57a6;}</style></defs><g id="Layer_9" data-name="Layer 9"><path class="cls-1" d="M112.25,62.59a11.07,11.07,0,0,1-4.31-.81,9,9,0,0,1-3.32-2.34,10.75,10.75,0,0,1-2.16-3.76,17.29,17.29,0,0,1,0-10,10.81,10.81,0,0,1,2.08-3.75,9.29,9.29,0,0,1,3.2-2.36,10.07,10.07,0,0,1,4.1-.82,10.47,10.47,0,0,1,4.19.82,8.89,8.89,0,0,1,3.19,2.36,10.71,10.71,0,0,1,2,3.75,16.45,16.45,0,0,1,.71,5v.52H104a13.76,13.76,0,0,0,.85,4A8.63,8.63,0,0,0,106.65,58a6.84,6.84,0,0,0,2.51,1.69,8.37,8.37,0,0,0,3.09.56,10.39,10.39,0,0,0,2.34-.28,7.82,7.82,0,0,0,2.12-.84,5.61,5.61,0,0,0,1.6-1.37,3.59,3.59,0,0,0,.76-1.88h2.32a7.81,7.81,0,0,1-3.17,5,8.89,8.89,0,0,1-2.72,1.3A11.81,11.81,0,0,1,112.25,62.59Zm7.29-13.77A9.67,9.67,0,0,0,116.89,43a7.15,7.15,0,0,0-5.08-1.93,7.94,7.94,0,0,0-2.79.47,6.68,6.68,0,0,0-2.3,1.43A8.1,8.1,0,0,0,105,45.39a12.48,12.48,0,0,0-1,3.43Z"/><path class="cls-1" d="M145.12,39.3,136.5,62h-2.1l-8.62-22.7h2.38l7.29,19.48,7.32-19.48Z"/><path class="cls-1" d="M142.15,83.54l-6.59-9.32L129,83.54h-2.84l8-11.37-8-11.34H129l6.57,9.32,6.56-9.32H145l-8,11.34,8,11.37Z"/><polygon class="cls-1" points="87.46 48.82 91.85 54.06 91.85 54.06 87.46 48.82"/><path class="cls-1" d="M90.5,47.52h0A10.84,10.84,0,0,0,94,46.16a8.87,8.87,0,0,0,2.46-2.25,9.48,9.48,0,0,0,1.44-3,13.08,13.08,0,0,0,.47-3.61,10.85,10.85,0,0,0-1.05-5.08,8.12,8.12,0,0,0-2.83-3.11,11.5,11.5,0,0,0-4-1.56,24.17,24.17,0,0,0-4.7-.44H68.42V65.62h2.81V48.26H84.7a6.3,6.3,0,0,1,2.76.56l3-1.3Zm-5.91-2.08H71.23V29.94H85.4q5,0,7.51,1.7t2.51,5.68a10.1,10.1,0,0,1-.63,3.8,5.7,5.7,0,0,1-2,2.51A8.46,8.46,0,0,1,89.48,45,24.6,24.6,0,0,1,84.59,45.44Z"/><polygon class="cls-1" points="96.16 54.4 94.03 51.81 94.03 51.81 96.16 54.4"/><path class="cls-1" d="M129.25,94.61,94,51.81h0l2.13,2.59,1,1.22-1-1.22,1,1.22-1-1.22L94,51.81c.14.29.27.59.39.91l.93,2.43,2.15,5.67,28.29,33.79Z"/><path class="cls-1" d="M91.15,52.61a10.28,10.28,0,0,0-1.6-2.26,6.91,6.91,0,0,0-2.09-1.53l4.39,5.24C91.62,53.56,91.39,53.08,91.15,52.61Z"/><polygon class="cls-1" points="94.03 51.81 90.5 47.52 94.03 51.81 94.03 51.81"/><path class="cls-1" d="M94.42,52.72c-.12-.32-.25-.62-.39-.91L90.5,47.52l-3,1.3a6.91,6.91,0,0,1,2.09,1.53,10.28,10.28,0,0,1,1.6,2.26c.24.47.47,1,.7,1.45l5.65,6.76-2.15-5.67Z"/><polygon class="cls-1" points="94.03 51.81 94.03 51.81 90.5 47.52 90.5 47.52 94.03 51.81"/><polyline class="cls-1" points="126.12 83.54 117.99 94.61 120.6 94.61 128.97 83.54"/><polyline class="cls-1" points="142.15 83.54 150.16 94.61 152.95 94.61 144.99 83.54"/><path class="cls-1" d="M157.54,38.93l28.94,11.53,0,2.88L157.73,65.28l0-3.24,24.68-10.11-24.82-9.81Z"/><path class="cls-1" d="M55.27,66.28l-29-11.42,0-2.87L55,39.93l0,3.23L30.36,53.38l24.87,9.7Z"/></g><g id="Layer_7" data-name="Layer 7"><path class="cls-2" d="M109,62.59a11,11,0,0,1-4.3-.81,9.08,9.08,0,0,1-3.33-2.34,10.89,10.89,0,0,1-2.15-3.76,17.29,17.29,0,0,1,0-10,10.81,10.81,0,0,1,2.08-3.75,9.25,9.25,0,0,1,3.19-2.36,10.12,10.12,0,0,1,4.11-.82,10.43,10.43,0,0,1,4.18.82,8.93,8.93,0,0,1,3.2,2.36,10.71,10.71,0,0,1,2,3.75,16.46,16.46,0,0,1,.7,5v.52H100.76a13.76,13.76,0,0,0,.85,4A8.63,8.63,0,0,0,103.37,58a6.88,6.88,0,0,0,2.5,1.69,8.44,8.44,0,0,0,3.09.56,10.41,10.41,0,0,0,2.35-.28,7.82,7.82,0,0,0,2.12-.84,5.61,5.61,0,0,0,1.6-1.37,3.67,3.67,0,0,0,.76-1.88h2.32a7.92,7.92,0,0,1-3.17,5,8.89,8.89,0,0,1-2.72,1.3A11.83,11.83,0,0,1,109,62.59Zm7.3-13.77A9.67,9.67,0,0,0,113.61,43a7.15,7.15,0,0,0-5.08-1.93,7.94,7.94,0,0,0-2.79.47,6.59,6.59,0,0,0-2.3,1.43,8.3,8.3,0,0,0-1.7,2.43,12.48,12.48,0,0,0-1,3.43Z"/><path class="cls-2" d="M141.84,39.3,133.22,62h-2.11L122.5,39.3h2.37l7.3,19.48,7.32-19.48Z"/><path class="cls-2" d="M138.87,83.54l-6.6-9.32-6.59,9.32h-2.84l8-11.37-8-11.34h2.87l6.56,9.32,6.57-9.32h2.87l-8,11.34,8,11.37Z"/><polygon class="cls-2" points="84.18 48.82 88.56 54.06 88.56 54.06 84.18 48.82"/><path class="cls-2" d="M87.22,47.52h0a10.84,10.84,0,0,0,3.5-1.36,8.87,8.87,0,0,0,2.46-2.25,9.48,9.48,0,0,0,1.44-3,13.47,13.47,0,0,0,.47-3.61,10.85,10.85,0,0,0-1-5.08,8.19,8.19,0,0,0-2.83-3.11,11.56,11.56,0,0,0-4-1.56,24,24,0,0,0-4.69-.44H65.14V65.62H68V48.26H81.42a6.3,6.3,0,0,1,2.76.56l3-1.3Zm-5.91-2.08H68V29.94H82.12q5,0,7.51,1.7t2.51,5.68a10.1,10.1,0,0,1-.63,3.8,5.85,5.85,0,0,1-2,2.51A8.46,8.46,0,0,1,86.2,45,24.6,24.6,0,0,1,81.31,45.44Z"/><polygon class="cls-2" points="92.88 54.4 90.75 51.81 90.75 51.81 92.88 54.4"/><path class="cls-2" d="M126,94.61,90.75,51.81h0l2.13,2.59,1,1.22-1-1.22,1,1.22-1-1.22-2.13-2.59c.13.29.27.59.39.91l.93,2.43,2.15,5.67,28.29,33.79Z"/><path class="cls-2" d="M87.87,52.61a10.28,10.28,0,0,0-1.6-2.26,6.91,6.91,0,0,0-2.09-1.53l4.38,5.24C88.34,53.56,88.11,53.08,87.87,52.61Z"/><polygon class="cls-2" points="90.75 51.81 87.22 47.52 90.75 51.81 90.75 51.81"/><path class="cls-2" d="M91.14,52.72c-.12-.32-.26-.62-.39-.91l-3.53-4.29-3,1.3a6.91,6.91,0,0,1,2.09,1.53,10.28,10.28,0,0,1,1.6,2.26c.24.47.47,1,.69,1.45l5.66,6.76-2.15-5.67Z"/><polygon class="cls-2" points="90.75 51.81 90.75 51.81 87.22 47.52 87.22 47.52 90.75 51.81"/><polyline class="cls-2" points="122.84 83.54 114.71 94.61 117.32 94.61 125.68 83.54"/><polyline class="cls-2" points="138.87 83.54 146.88 94.61 149.67 94.61 141.71 83.54"/><path class="cls-2" d="M154.26,38.93,183.2,50.46l0,2.88L154.45,65.28l0-3.24,24.68-10.11-24.83-9.81Z"/><path class="cls-2" d="M52,66.28,23,54.86,23,52,51.69,39.93l0,3.23L27.08,53.38,52,63.08Z"/></g></svg>